<svg version="1.1" id="logo-coder" xmlns="http://www.w3.org/2000/svg" xmlns:xlink="http://www.w3.org/1999/xlink" x="0px" y="0px" viewBox="0 0 595.3 841.9" fill="#007aff" xml:space="preserve" width="200"  height="282.8489837056946" >
                        <path class="st0" d="M118.1,472.7h-37c-7.8,0-13.8-0.7-18.1-2c-4.3-1.3-8.1-3.7-11.6-7.3c-3.9-4.1-6.5-9.6-7.7-16.6
                        c-0.2-5-0.1-9,0.1-12.2c0.1-3.2,0.8-7.2,2-12c4.3-18.2,11.5-31.7,21.6-40.5c10.1-8.8,23.3-13.1,39.5-13.1h36.5l-5.1,20.8h-36.1
                        c-7.9,0-14.2,2.5-18.8,7.6c-4.7,5-8.6,13.7-11.6,26.1c-1.5,6.3-2.2,11.4-2,15.2c0.1,2.7,0.7,5,1.7,6.8c1.9,4.1,7.1,6.1,15.7,6.1
                        h36.1L118.1,472.7L118.1,472.7z M536.7,472.7h-25.4l2.6-17.9c2-13.6-1.8-21.4-16.3-21.4h-20l-9.7,39.3h-24.2L469.2,369H522
                        c12.5,0,20.9,2.6,25.2,7.8c2.8,3.1,4.2,7.2,4.4,12.2c0.1,3.4-0.3,7.3-1.2,11.8c-2.2,8.2-5.6,14.7-10.1,19.5
                        c-3.1,3.3-6.6,5.8-10.4,7.6c5.1,2.4,11.1,8.7,9.1,25.2L536.7,472.7L536.7,472.7z M525.9,401.1c0.4-2.1,0.6-3.5,0.6-4.2
                        c-0.1-1.6-0.6-2.9-1.8-4c-2.1-1.6-6.4-2.4-12.8-2.4H488l-5.2,21.5h23.8c6.3,0,10.9-0.9,13.8-2.6C523,407.8,524.8,405,525.9,401.1
                        L525.9,401.1z M427,472.7l5.3-21.1h-36.1c-7.9,0-13.1-1.8-15.5-5.3c-1.2-1.6-1.8-3.8-1.9-6.5c-0.1-2.7,0.2-5.8,1-9.1h57.5l5.1-20.9
                        l-57.6-0.1c2.1-6.3,5.3-11.2,9.6-14.5c4.3-3.3,9.9-5,16.8-5h36.1l5.1-21.1h-36.5c-16.2,0-29.4,4.4-39.5,13.1
                        c-10.1,8.8-17.3,22.3-21.6,40.5c-1.2,4.8-1.9,8.9-2,12c-0.3,3.2-0.3,7.3-0.1,12.2c1.2,7,3.8,12.5,7.7,16.6c3.4,3.5,7.3,5.9,11.6,7.3
                        c4.2,1.3,10.3,2,18.1,2H427L427,472.7z M348.1,422.7c-2.3,9.2-5.6,17.3-9.9,24.2c-4.4,6.9-9.7,12.4-16,16.6
                        c-2.2,1.5-4.6,2.9-7.2,4.1c-2.6,1.2-5.2,2.2-7.8,2.9c-5,1.4-11.4,2.2-19.2,2.2h-47.4L266,369h46.8c16.5,0,27.5,4.5,33.2,13.4
                        c2.9,4.2,4.4,9.8,4.7,16.9C350.9,406.2,350.1,413.9,348.1,422.7L348.1,422.7z M322.3,420.8c1.7-7.2,2.5-13.2,2.3-18
                        c-0.1-2.6-0.6-4.7-1.3-6.4c-1.8-4.2-7.1-6.3-15.9-6.3H285l-15,61.5h22.3c8.7,0,15.1-2.2,19.4-6.5
                        C315.8,440.8,319.3,432.7,322.3,420.8L322.3,420.8z M240.3,420.7c1-4.3,1.7-8.4,2.2-12.2c0.5-3.7,0.6-7,0.5-10
                        c-0.3-7.2-2.1-13.3-5.4-18.3c-6.1-8.7-17.9-13.1-35.3-13.1c-17.2,0-31,4.3-41.3,12.8c-10.6,8.6-18.1,21.9-22.6,39.9
                        c-2.2,9.2-3.1,16.9-2.9,23.2c0.3,7.4,2,13.5,5.3,18.2c6,9.1,17.7,13.7,35.2,13.7c17.1,0,31-4.5,41.6-13.5
                        C228.1,452.4,235.7,438.9,240.3,420.7L240.3,420.7z M214.3,420.7c-2.9,11.4-7,19.7-12.3,25c-5.5,5.4-12.4,8.1-20.8,8.1
                        c-8.5,0-14.1-2.6-16.7-7.9c-1.3-2.5-2-5.5-2.1-9.1c-0.2-4.6,0.6-10.3,2.2-17c2.7-10.7,6.8-18.8,12.2-24.3c5.4-5.4,12.3-8.1,20.6-8.1
                        c8.7,0,14.2,2.6,16.7,7.9c1.3,2.7,2.1,5.8,2.2,9.5C216.4,409.1,215.8,414.4,214.3,420.7z" fill="#007AFF"></path>
                    </svg>