<?xml version="1.0" standalone="no"?><!DOCTYPE svg PUBLIC "-//W3C//DTD SVG 1.1//EN" "http://www.w3.org/Graphics/SVG/1.1/DTD/svg11.dtd"><svg t="1709034626753" class="icon" viewBox="0 0 1024 1024" version="1.1" xmlns="http://www.w3.org/2000/svg" p-id="7005" xmlns:xlink="http://www.w3.org/1999/xlink" width="64" height="64"><path d="M115.74183506 297.49500839c70.42288197-56.83023013 144.21156347-103.17470025 229.13327408-131.91344987 53.46443061-17.99408197 107.83503803-30.68055703 163.11182222-37.6710637 60.97275259-7.63777581 122.4633205-9.32067555 184.08334222-3.10689185 47.50955457 4.78979161 93.98347852 12.81592889 138.90395655 28.73874962 57.47749925 20.32425086 104.21033086 55.14733037 137.47996444 106.2815921 10.48576 16.05227457 18.64135111 34.04635653 23.3016889 52.4288-4.2719763 4.2719763-8.41449876 3.10689185-12.2981136 3.10689184-59.16039902 0-118.32079803-0.12945383-177.48119704 0.25890766-9.70903703 0.12945383-15.27555161-2.84798419-20.58315852-11.13302913-9.96794469-15.66391309-23.69005037-28.86820347-38.188879-40.26014024-40.90740939-32.23400297-85.95734124-55.14733037-137.60941828-67.1865363-39.35396347-9.19122173-79.22574222-13.33374419-118.83861333-12.94538271-45.17938569 0.38836148-90.74713283 4.14252247-135.4087032 14.75773629-47.63900839 11.52139061-94.37184 26.27912691-138.51559507 47.76846221-26.79694222 13.07483653-54.50006124 25.2434963-78.57847308 43.62593977-4.53088395 3.49525333-9.32067555 7.63777581-18.51189729 7.24941431zM92.18123852 645.07853431c-34.04635653 5.82542222-35.08198717 4.91924543-34.56417185-27.57366517 0.12945383-8.02613728 0-16.05227457 0.64726914-23.94895803 1.94180741-22.78387358-3.62470717-42.8492168-23.04278124-57.86586074 14.23992098-12.94538272 34.95253333-12.55702124 42.4608553-31.71618765-12.03920592-4.01306864-23.94895803-2.58907653-35.47034863-2.58907655-10.48576 0.12945383-16.31118222-3.88361482-16.31118222-14.62828247-0.12945383-11.9097521 8.02613728-11.78029827 16.57008987-11.65084445 13.46319803 0.12945383 27.05584987 0 40.64850172 0 7.1199605 0 13.46319803-1.94180741 13.20429037-10.61521382-0.25890765-8.80286025-6.34323753-9.83849086-13.59265184-9.45012938-9.0617679 0.38836148-17.99408197 0-27.05584989 0.25890765-8.93231408 0.25890765-16.82899753-2.07126124-17.34681283-12.16865975-0.64726914-11.26248297 8.80286025-12.03920592 16.69954371-12.81592889 9.45012939-0.77672297 19.02971259-0.25890765 28.60929579-0.38836148 6.08432987-0.12945383 12.16865975-0.51781531 14.62828247-7.89668345-3.10689185-6.86105283-9.45012939-6.47269136-15.27555159-6.60214519-11.52139061-0.25890765-23.04278124-0.38836148-34.56417186-0.25890766-9.96794469 0.12945383-17.73517431-4.14252247-17.73517433-14.11046715 0-9.70903703 7.89668347-14.88719013 17.34681286-15.40500544 10.48576-0.64726914 21.10097383-0.64726914 31.58673381-0.12945383 10.35630617 0.38836148 18.12353581-2.20071506 18.90025877-13.98101333 0.77672297-10.35630617 8.28504494-9.83849086 15.2755516-9.83849086 7.89668347 0 17.47626667-1.29453827 18.64135111 9.96794469 1.29453827 12.16865975 8.41449876 14.23992098 18.77080494 13.72210567 8.54395259-0.38836148 17.08790518-0.12945383 25.50240395 0.38836149 7.1199605 0.38836148 12.29811358 3.75416098 13.59265185 11.52139062 1.4239921 8.67340642-3.62470717 13.07483653-10.48576 16.05227456-8.15559111 3.49525333-16.82899753 1.81235358-25.2434963 1.94180741-7.89668347 0.12945383-16.05227457-1.03563061-22.65441973 5.04869926 1.29453827 8.67340642 7.89668347 7.89668347 13.72210567 8.41449877 8.02613728 0.77672297 15.92282075 1.4239921 23.94895803 2.20071505 7.89668347 0.64726914 11.78029827 4.66033778 11.0035753 12.8159289-0.64726914 7.76722963-4.78979161 11.78029827-12.55702123 11.90975209-8.54395259 0.12945383-17.08790518-0.25890765-25.50240396 0.77672297-4.91924543 0.51781531-10.22685235 3.23634569-9.83849086 9.45012938 0.38836148 6.47269136 4.66033778 10.09739852 11.13302913 9.57958322 11.00357531-0.9061768 21.74824297 3.10689185 32.8812721 0.5178153 8.80286025-2.07126124 13.33374419 2.71853037 13.85155952 11.26248297 0.51781531 8.15559111-2.71853037 13.72210569-11.78029828 13.98101333-13.98101333 0.51781531-28.0914805 1.16508445-42.07249383 1.03563062-7.89668347-0.12945383-13.46319803 2.20071506-16.95845136 9.45012938-6.34323753 13.20429037-19.80643555 20.45370469-29.64492642 31.45728 8.93231408 8.15559111 17.6057205 5.17815309 25.63185778 5.56651456 9.45012939 0.38836148 19.02971259 0.25890765 28.6092958 0.25890766 6.99050667 0 12.68647506-0.38836148 12.03920594-10.48576-0.77672297-12.55702124 10.22685235-13.20429037 18.77080493-14.7577363 8.54395259-1.55344592 15.53445925 2.33016889 16.1817284 11.52139062 1.16508445 14.36937482 10.48576 15.66391309 21.10097382 14.62828247 22.52496592-2.33016889 45.04993185-0.12945383 67.57489778-0.51781531 13.33374419-0.25890765 20.32425086 5.17815309 19.28862024 19.80643556-1.03563061 13.98101333-0.12945383 28.0914805-0.12945382 42.07249382-0.12945383 26.14967309-7.89668347 35.47034864-33.65799506 37.80051754-10.35630617 0.9061768-20.97152-0.64726914-31.45728-1.29453828-12.42756741-0.77672297-14.23992098-10.61521383-13.98101334-19.41807408 0.25890765-9.83849086 9.45012939-6.34323753 15.40500543-6.99050666 1.94180741-0.25890765 4.01306864 0 5.95487606 0 22.26605827 0.12945383 29.64492642-10.35630617 22.39551209-31.58673382-1.81235358-5.43706075-5.82542222-6.60214518-10.48576-6.60214519-16.57008987-0.12945383-33.01072592 0.12945383-49.5808158 0-9.0617679 0-12.29811358 4.2719763-12.16865975 13.07483654 0.38836148 18.51189728-0.25890765 37.15324839 0.25890765 55.66514569 0.38836148 10.87412148-1.81235358 17.21735902-14.75773629 15.92282073-11.13302914-1.03563061-21.35988148-1.16508445-20.58315853-16.82899753 0.77672297-16.95845136-0.25890765-34.04635653 0.51781531-51.13426173 0.51781531-12.16865975-3.62470717-17.73517431-16.18172839-17.21735901-12.03920592 0.51781531-24.07841185 0.12945383-36.11761778 0-8.54395259 0-12.68647506 3.49525333-12.4275674 12.68647506 0.12945383 15.92282075-0.12945383 32.3634568-0.12945383 49.71026962zM85.19073185 719.12612347c34.69362569 45.43829333 76.63666569 76.11885037 125.69966618 96.57255505 37.15324839 15.53445925 76.63666569 22.65441975 116.89680592 24.46677333 59.93712197 2.58907653 119.09752098-3.10689185 176.8339279-19.15916642 45.43829333-12.55702124 88.02860247-31.71618765 126.86475062-59.03094518 10.22685235-7.1199605 21.10097383-13.33374419 29.90383406-22.3955121 3.23634569-3.3657995 7.50832197-4.91924543 12.2981136-4.78979162 37.02379457 0.12945383 74.17704297 0.12945383 111.20083752 0.25890766 2.97743803 0 5.95487605 0.38836148 8.5439526 3.49525334-4.14252247 9.83849086-13.20429037 15.66391309-20.97152 22.3955121-74.8243121 65.50363653-163.62963753 98.25545482-261.10836939 111.0713837-34.30526419 4.53088395-68.48107457 8.15559111-103.04524641 8.02613728-67.57489778-0.25890765-133.59634963-10.48576-195.8636405-37.54160986-24.98458864-10.87412148-47.38010075-26.66748839-68.48107456-44.92047803-19.28862025-16.6995437-33.91690272-36.37652543-49.45136198-55.79459952-4.01306864-5.30760691-8.28504494-10.87412148-9.32067556-22.65441973zM771.94328494 453.74577778c-4.01306864 6.2137837-2.71853037 11.3919368-2.71853037 16.18172839-0.12945383 59.67821431-0.25890765 119.35642864 0.12945382 179.03464297 0.12945383 10.61521383-1.68289975 18.12353581-13.59265186 18.38244345-12.81592889 0.38836148-14.36937482-9.0617679-14.3693748-18.51189728 0-48.67463902 0.38836148-97.21982419 0.38836147-145.89446321 0-39.61287111-0.25890765-79.09628839-0.5178153-118.70915951 0-3.49525333-0.38836148-7.1199605 0.25890765-10.48576 1.4239921-7.1199605 3.49525333-14.11046717 13.07483655-13.3337442 8.67340642 0.64726914 14.11046717 5.56651457 14.36937481 14.36937481 0.38836148 10.48576 0.12945383 21.10097383 0.12945384 31.58673383 0 3.49525333-0.25890765 9.45012939 2.71853036 9.32067556 17.21735902-0.77672297 22.65441975 13.8515595 33.01072592 24.98458865 7.89668347-14.62828247 20.58315852-12.81592889 33.14017977-12.81592889 50.09863111 0.38836148 100.06780839-0.77672297 150.1664395 0.77672296 14.36937482 0.51781531 15.79336691 7.76722963 16.18172839 19.15916642 0.38836148 13.59265185-7.76722963 14.23992098-17.6057205 14.11046716-33.52854124-0.38836148-67.1865363-0.64726914-100.71507752-1.16508444-9.96794469-0.12945383-14.7577363 4.40143013-14.7577363 14.3693748 0 42.07249383 0 84.27444148-0.12945384 126.34693532 0 11.78029827 6.2137837 15.27555161 17.34681286 15.14609778 30.0332879-0.51781531 60.19602963 0.38836148 90.22931752-0.51781532 12.94538272-0.38836148 14.7577363 6.08432987 15.53445926 16.31118222 0.77672297 10.87412148-4.40143013 14.11046717-14.11046715 14.62828248-44.14375506 1.81235358-88.1580563 1.81235358-132.30181137-0.25890765-10.35630617-0.51781531-10.87412148-7.63777581-11.13302913-14.49882865-0.51781531-15.01664395-0.25890765-30.0332879-0.25890766-45.17938568 0.25890765-35.08198717 0.64726914-70.16397431 0.77672297-105.24596148 0-4.53088395-0.51781531-9.0617679-1.29453828-13.46319802-1.03563061-5.17815309-5.17815309-7.63777581-9.83849086-7.6377758-4.91924543 0-10.22685235 0.51781531-12.03920593 6.60214518-1.16508445 3.75416098-2.20071506 7.63777581-3.75416098 11.26248296-2.45962272 5.69596839-5.95487605 10.61521383-13.46319803 9.83849088-7.1199605-0.77672297-10.22685235-5.30760691-11.9097521-11.65084445-1.81235358-8.28504494-3.88361482-17.08790518-12.94538271-23.04278124z" fill="#1296db" p-id="7006"></path><path d="M266.81445136 407.40130765c-8.41449876-3.3657995-16.95845136-1.55344592-25.2434963-1.55344592-8.93231408 0-8.15559111 6.99050667-8.15559111 12.94538272 0.12945383 34.56417185-0.9061768 69.1283437 0.64726914 103.69251555 0.77672297 16.95845136-10.09739852 16.05227457-19.93588939 17.21735902-11.26248297 1.29453827-14.23992098-5.56651457-14.23992098-15.92282075-0.25890765-42.46085531-1.16508445-84.92171061-1.42399211-127.38256592-0.12945383-18.38244347 2.45962272-20.19479703 21.10097384-20.84206618 23.94895803-0.77672297 48.02736987 1.94180741 71.84687407-2.4596227 10.35630617-1.94180741 17.99408197 4.66033778 25.50240395 10.74466764 5.17815309 4.2719763 2.71853037 9.0617679 0.25890766 13.59265186-5.17815309 9.19122173-11.3919368 17.6057205-18.77080495 25.24349628-9.32067555 9.70903703-9.0617679 18.25298963 1.29453829 28.0914805 10.87412148 10.48576 23.04278124 21.23042765 21.23042764 39.22450964-1.81235358 18.25298963-11.00357531 28.73874963-28.73874963 33.78744888-12.81592889 3.62470717-25.89076543 2.20071506-38.83614815 1.94180742-10.74466765-0.25890765-14.7577363-10.48576-12.16865975-27.57366519 8.67340642-2.84798419 17.6057205-0.9061768 26.53803457-1.03563063 6.86105283-0.12945383 13.20429037-1.16508445 16.6995437-7.76722962 4.01306864-7.37886815 0.9061768-13.72210569-3.62470716-19.28862025-5.30760691-6.60214518-10.35630617-13.33374419-18.1235358-17.6057205-9.5795832-5.17815309-14.23992098-11.52139061-4.53088395-22.26605826 5.04869925-5.56651457 11.00357531-12.94538272 8.67340642-22.78387359zM529.21735902 367.40007506c3.49525333 6.99050667 2.33016889 13.07483653 2.33016888 18.90025877 0 76.11885037-0.25890765 152.36715457 0 228.48600493 0.12945383 41.29577086 1.81235358 44.53211653-50.48699259 51.91098471-5.43706075 0.77672297-11.00357531 0-16.57008988-0.12945384-17.47626667-0.25890765-26.27912691-9.45012939-25.50240395-26.92639605 0.38836148-8.28504494 6.2137837-10.61521383 13.59265185-10.61521383 9.45012939 0.12945383 19.02971259-0.38836148 28.47984198 0.51781531 11.3919368 1.16508445 14.49882864-3.23634569 14.36937482-14.49882864-0.38836148-74.69485827-0.12945383-149.38971653-0.25890766-224.08457481 0-24.98458864-0.12945383-24.98458864 24.3373195-24.46677334 3.23634569 0.38836148 6.2137837 0.64726914 9.70903705 0.90617679zM599.64024098 441.9654795c6.08432987-0.9061768 10.74466765 1.03563061 13.59265185 6.86105285 18.25298963 39.35396347 42.07249383 76.37775803 52.16989235 119.35642863 3.3657995 14.62828247-11.00357531 31.19837235-25.7613116 28.35038816-6.99050667-1.4239921-7.76722963-8.41449876-9.32067555-14.11046717-8.02613728-28.99765728-19.93588939-56.44186864-31.8456415-83.88608-4.78979161-11.00357531-10.22685235-21.61878914-15.40500542-32.36345679-7.76722963-16.31118222-2.45962272-24.07841185 16.57008987-24.20786568zM446.49636347 457.62939259c-3.49525333 23.17223506-10.48576 46.2150163-19.67698174 68.35162074-8.28504494 19.80643555-18.77080494 38.70669431-28.99765728 57.73640692-2.84798419 5.43706075-6.73159902 13.20429037-14.36937482 10.74466765-8.93231408-2.97743803-16.44063605-9.45012939-22.78387358-16.44063605-1.68289975-1.81235358 0.38836148-4.66033778 1.81235358-6.73159902 23.94895803-35.34089482 37.41215605-75.08321975 46.08556247-116.37899061 2.20071506-10.48576 8.02613728-13.8515595 16.95845137-11.26248297 8.02613728 2.20071506 20.97152-1.94180741 20.97152 13.98101334zM733.1071368 447.27308642c-0.77672297 23.17223506-4.53088395 42.71976297-10.22685235 61.87892939-1.68289975 5.82542222-4.53088395 11.52139061-12.68647506 8.93231406-7.24941431-2.33016889-15.27555161-4.40143013-13.46319803-14.62828246 4.14252247-23.04278124 8.80286025-45.82665482 13.33374419-68.86943605 1.03563061-5.17815309 4.66033778-7.50832197 9.57958321-7.89668346 5.82542222-0.64726914 9.70903703 2.07126124 11.00357532 7.76722963 1.4239921 5.17815309 2.07126124 10.61521383 2.45962272 12.81592889zM912.65959506 421.25286717c-6.47269136 0.9061768-11.78029827-2.71853037-15.79336691-8.28504495-5.30760691-7.24941431-10.35630617-14.7577363-15.53445926-22.00715061-5.56651457-7.76722963-10.22685235-14.7577363 0.64726914-22.78387358 9.83849086-7.24941431 17.34681283-8.28504494 24.8551348 2.71853036 6.2137837 9.0617679 13.59265185 17.21735902 19.54752792 26.40858075 8.67340642 13.07483653 2.71853037 23.56059653-13.72210569 23.94895803z" fill="#1296db" p-id="7007"></path></svg>