<?xml version="1.0" standalone="no"?>
<!DOCTYPE svg PUBLIC "-//W3C//DTD SVG 20010904//EN"
 "http://www.w3.org/TR/2001/REC-SVG-20010904/DTD/svg10.dtd">
<svg version="1.0" xmlns="http://www.w3.org/2000/svg"
 width="1600.000000pt" height="1280.000000pt" viewBox="0 0 1500.000000 1500.000000"
 preserveAspectRatio="xMidYMid meet">

<g transform="translate(0.000000,1280.000000) scale(0.100000,-0.100000)"
fill="#000" stroke="none">
<path d="M7995 9108 l-109 -52 -173 -1 -172 -1 -85 -43 c-91 -45 -144 -90
-171 -148 -20 -42 -29 -39 -14 6 16 46 3 95 -32 125 -17 14 -34 26 -37 26 -4
0 -23 -28 -42 -61 -28 -49 -168 -199 -186 -199 -2 0 -4 13 -4 28 0 56 -20 56
-72 1 -27 -28 -65 -57 -84 -65 -57 -24 -129 -81 -159 -126 -16 -24 -47 -61
-70 -83 -53 -50 -59 -62 -84 -163 -11 -45 -36 -112 -55 -149 -18 -38 -47 -97
-62 -133 -16 -36 -31 -67 -35 -70 -29 -23 -129 -252 -129 -296 0 -11 16 -40
36 -63 l37 -42 -13 -118 c-14 -135 -13 -139 56 -203 62 -58 68 -71 54 -124
-11 -38 -10 -46 8 -76 12 -18 32 -44 46 -57 34 -32 33 -41 -7 -41 -54 0 -180
-89 -212 -150 -59 -113 -75 -315 -35 -444 39 -126 116 -229 218 -295 77 -49
230 -92 339 -94 51 -1 93 -4 93 -6 0 -2 -11 -17 -25 -33 -54 -64 -69 -107 -71
-199 -2 -73 -6 -94 -32 -145 -40 -79 -60 -180 -73 -366 -7 -104 -20 -196 -41
-285 -21 -90 -28 -143 -24 -167 9 -46 57 -136 107 -204 l40 -53 -48 -66 c-26
-36 -54 -73 -61 -83 -12 -16 -5 -30 53 -118 74 -113 109 -152 136 -152 11 0
19 -1 19 -2 0 -2 -7 -39 -15 -83 -8 -44 -14 -125 -15 -179 0 -79 -3 -101 -16
-110 -14 -11 -13 -16 11 -45 35 -40 51 -29 36 25 -29 105 6 457 54 534 3 6 16
-2 29 -17 22 -25 25 -26 55 -13 55 23 59 1 12 -83 -22 -41 -41 -79 -41 -84 0
-9 151 -120 237 -173 51 -32 53 -35 84 -129 41 -123 71 -192 103 -234 21 -28
27 -49 32 -113 8 -126 12 -139 59 -203 36 -49 45 -69 45 -103 0 -28 8 -51 25
-74 14 -18 25 -39 25 -47 0 -7 12 -24 26 -38 43 -40 47 -54 24 -98 -20 -40
-31 -103 -33 -201 l-2 -55 -55 -6 c-106 -11 -170 -47 -170 -93 0 -12 11 -28
23 -37 35 -25 189 -56 377 -74 166 -17 179 -17 255 -1 44 10 98 20 120 22 211
25 264 35 312 59 65 33 61 50 -16 70 -31 9 -78 22 -106 30 -27 8 -77 16 -110
18 l-60 3 -17 91 c-19 106 -41 160 -91 225 -45 59 -64 116 -48 147 9 16 9 35
0 80 -10 44 -10 71 -1 115 l12 58 -43 71 c-37 64 -42 78 -40 128 4 90 32 208
68 284 36 75 76 122 95 110 6 -4 32 -39 57 -78 34 -54 48 -88 59 -146 8 -42
21 -98 30 -126 15 -52 13 -88 -17 -258 -12 -66 -11 -68 21 -140 18 -39 41 -81
50 -92 10 -11 20 -44 23 -75 7 -74 50 -206 83 -253 26 -39 108 -87 147 -87 40
0 116 42 141 79 52 75 40 184 -36 318 l-29 53 24 32 c49 65 67 116 74 201 3
45 10 90 15 100 5 10 40 38 77 62 94 60 102 72 94 159 -4 56 -2 80 12 111 12
27 20 79 24 163 l6 122 64 88 c53 73 71 91 101 99 33 8 40 7 72 -21 19 -17 40
-40 45 -51 40 -76 59 -325 27 -343 -13 -7 -14 -13 -5 -31 18 -33 27 -25 41 38
14 69 1 225 -26 305 -15 42 -15 51 -3 55 8 2 29 20 47 40 43 47 44 92 0 152
-34 46 -33 40 -41 229 -2 48 19 128 60 225 46 111 45 120 -51 410 -47 143 -95
272 -106 287 -11 15 -20 40 -20 55 0 16 -9 47 -20 68 -15 29 -17 41 -8 44 6 2
52 24 100 48 280 140 475 383 524 653 21 115 18 308 -6 408 -40 166 -129 321
-269 465 -73 76 -98 109 -135 186 -25 52 -46 103 -46 113 0 10 -6 29 -14 41
-21 31 -58 184 -54 220 3 27 8 32 37 38 18 4 48 21 65 38 27 27 31 38 31 84 0
40 -6 63 -25 91 -28 41 -107 85 -169 93 -46 6 -81 37 -66 57 59 80 74 120 75
202 0 33 -3 64 -6 67 -4 3 -16 0 -28 -8 -39 -28 -54 -19 -61 33 -17 134 -29
196 -53 285 -14 53 -31 97 -36 97 -6 0 -20 -12 -33 -27 l-22 -28 6 70 c4 57 1
82 -19 135 -18 52 -28 66 -47 68 -15 3 -21 0 -16 -8 8 -13 -13 -70 -26 -70 -5
0 -9 7 -9 15 0 25 -41 17 -129 -25 -91 -44 -121 -50 -121 -22 0 10 -6 26 -13
36 -13 17 -17 17 -88 -9 -44 -16 -98 -27 -133 -28 l-59 -2 -13 40 c-8 21 -24
50 -37 63 -22 24 -69 52 -84 52 -4 -1 -57 -24 -118 -52z m145 0 c0 -18 -169
-179 -230 -219 -54 -36 -100 -54 -100 -40 0 4 16 22 35 41 41 39 42 46 15 60
-17 9 -19 8 -13 -7 6 -15 4 -16 -9 -6 -8 7 -18 10 -21 6 -4 -3 -39 -7 -79 -8
-90 -3 -157 -12 -226 -32 -29 -8 -60 -12 -68 -9 -10 4 -12 2 -8 -6 5 -7 0 -9
-14 -6 -12 4 -22 2 -22 -2 0 -9 -40 -25 -52 -22 -5 1 -8 -6 -8 -15 0 -15 -2
-16 -10 -3 -6 10 -10 11 -10 3 0 -7 -4 -13 -10 -13 -17 0 -11 13 22 50 17 19
28 27 25 18 -7 -20 10 -20 30 -1 18 16 16 23 -4 16 -15 -5 -16 -3 -6 7 7 8 30
14 50 15 21 1 51 7 67 13 15 7 39 13 51 14 14 1 21 7 18 15 -4 10 9 13 50 13
55 0 83 14 50 24 -10 3 -4 3 12 0 17 -2 69 -7 118 -11 77 -5 94 -3 147 18 33
13 82 40 108 61 46 36 92 49 92 26z m620 -88 c0 -5 -5 -10 -11 -10 -5 0 -7 5
-4 10 3 6 8 10 11 10 2 0 4 -4 4 -10z m103 -12 c13 -52 19 -128 12 -145 -4
-10 -7 -30 -6 -45 2 -20 -10 -40 -45 -78 -45 -48 -74 -63 -74 -37 0 6 12 44
26 82 14 39 28 86 31 105 l6 35 -47 -38 c-44 -37 -46 -37 -36 -12 13 34 13 35
-6 28 -9 -3 -20 0 -25 8 -6 11 -14 8 -36 -13 -40 -37 -135 -86 -140 -72 -5 14
-5 13 -133 -18 -52 -12 -96 -26 -98 -30 -2 -5 -15 -8 -28 -8 -13 0 -43 -16
-66 -37 -24 -20 -52 -44 -62 -53 -18 -14 -18 -14 -8 6 7 12 26 36 44 53 81 76
124 111 135 111 6 0 13 4 15 8 4 11 149 64 156 57 3 -3 12 4 19 15 12 17 24
20 73 19 45 -2 71 4 110 23 27 14 50 21 50 17 0 -4 -4 -10 -9 -13 -5 -3 -7
-14 -4 -24 7 -27 45 -17 84 20 l31 30 -7 -32 c-5 -23 -4 -30 4 -26 6 4 11 25
11 47 0 42 14 53 23 17z m-1303 -2 c0 -2 -7 -6 -15 -10 -8 -3 -15 -1 -15 4 0
6 7 10 15 10 8 0 15 -2 15 -4z m-50 -16 c-8 -5 -19 -10 -25 -10 -5 0 -3 5 5
10 8 5 20 10 25 10 6 0 3 -5 -5 -10z m990 -4 c0 -22 -27 -39 -78 -49 -61 -12
-126 -11 -152 3 -27 15 -16 31 18 25 15 -3 61 4 102 14 93 24 110 25 110 7z
m-1270 -71 c0 -25 -52 -84 -108 -124 -18 -13 -47 -36 -65 -52 -17 -16 -35 -29
-38 -29 -4 0 -14 -12 -22 -27 -74 -143 -154 -313 -184 -393 -35 -93 -42 -67
-14 51 10 46 22 99 26 117 4 18 13 36 21 39 8 3 14 18 14 33 0 59 77 180 115
180 8 0 18 6 22 13 4 7 20 22 35 33 76 59 141 122 160 155 23 41 38 42 38 4z
m1739 -166 c31 -153 17 -204 -81 -278 -27 -21 -21 -6 13 34 17 20 24 33 15 29
-20 -8 -20 8 0 48 15 28 14 31 -6 53 l-21 22 30 30 c27 28 29 32 20 78 -5 27
-11 51 -14 53 -3 3 0 11 7 19 6 7 12 12 14 10 2 -2 12 -46 23 -98z m-2078 -30
c-19 -16 -49 -37 -68 -45 -18 -9 -31 -20 -28 -24 3 -4 -11 -21 -31 -36 -20
-16 -37 -27 -38 -24 -4 8 -36 -21 -36 -32 0 -6 8 -4 18 3 15 13 16 12 3 -3 -7
-10 -19 -18 -26 -18 -8 0 -21 -15 -30 -32 -21 -43 -50 -217 -39 -228 6 -6 6
-49 1 -102 -4 -51 -7 -115 -7 -141 1 -32 -3 -47 -9 -42 -6 3 -11 13 -11 22 0
8 -6 29 -14 46 -15 35 -27 79 -29 115 -1 12 -6 22 -11 22 -5 0 -5 24 -1 53 4
28 8 79 10 112 4 77 10 88 75 160 115 125 159 162 200 169 22 3 43 12 47 19 7
13 42 36 53 37 3 0 -10 -14 -29 -31z m1870 -54 c-1 -15 -24 -12 -29 3 -3 9 2
13 12 10 10 -1 17 -7 17 -13z m69 7 c0 -14 -11 -21 -26 -15 -8 3 -11 9 -8 14
7 11 34 12 34 1z m-204 -252 c37 -41 105 -70 168 -70 42 -1 65 -16 126 -82 30
-33 60 -58 72 -58 23 0 58 -17 58 -29 0 -4 -40 -11 -88 -14 -172 -12 -293 -70
-427 -202 -130 -129 -191 -239 -169 -304 8 -22 16 -27 53 -29 38 -3 53 3 124
50 178 117 339 171 517 172 l105 1 7 -77 c4 -42 12 -96 18 -119 6 -22 10 -43
8 -44 -2 -2 -39 1 -83 7 -44 5 -136 8 -205 5 -101 -3 -139 -9 -198 -30 -99
-34 -211 -100 -283 -165 -70 -64 -79 -91 -11 -35 61 51 138 103 151 103 7 0 7
-8 1 -26 -6 -14 -10 -50 -10 -80 0 -94 44 -154 154 -212 47 -24 61 -27 161
-26 139 0 205 18 269 75 83 73 112 166 81 259 -27 81 -11 69 36 -26 35 -71 60
-106 132 -179 140 -142 206 -242 257 -390 67 -193 63 -454 -10 -662 -65 -185
-249 -365 -495 -483 -210 -101 -347 -137 -556 -147 -450 -20 -885 142 -1369
510 -58 44 -109 86 -113 94 -14 24 -36 14 -56 -25 -25 -49 -91 -108 -150 -136
-38 -17 -64 -21 -156 -20 -105 0 -114 2 -193 37 -184 81 -269 171 -322 337
-46 145 -12 379 66 453 74 69 112 87 183 86 36 0 88 -4 116 -7 46 -7 52 -11
87 -62 20 -30 37 -65 37 -77 1 -28 17 -29 56 -3 44 29 50 24 13 -9 -44 -39
-28 -51 22 -16 38 26 53 55 29 55 -5 0 -7 5 -4 10 4 6 2 17 -4 24 -7 8 -26 56
-43 107 -24 72 -31 110 -29 162 0 41 -5 82 -14 104 -17 41 -19 100 -5 138 10
26 -9 125 -29 149 -5 6 -14 36 -19 66 l-10 55 44 65 c44 65 74 141 74 187 0
16 22 49 62 93 84 92 138 183 138 231 0 29 6 40 27 54 24 16 40 17 157 9 165
-11 290 -11 338 -1 20 4 60 24 88 43 l52 36 126 -7 c127 -7 177 0 273 36 20 8
50 6 111 -5 47 -9 118 -16 160 -16 66 0 84 4 146 35 38 19 75 42 82 50 18 22
26 19 66 -25z m484 3 c0 -31 -24 -83 -38 -83 -15 0 -12 21 8 75 11 28 30 34
30 8z m79 -316 c62 -25 89 -56 98 -110 5 -31 1 -42 -17 -63 -27 -27 -91 -48
-121 -39 -27 9 -14 25 21 25 40 0 90 44 90 79 0 33 -40 73 -90 91 -19 6 -87
14 -150 17 -136 7 -122 21 20 22 76 0 106 -4 149 -22z m-2709 -112 c0 -6 -13
-31 -28 -56 -16 -24 -34 -64 -41 -89 -7 -25 -21 -56 -31 -70 -18 -24 -18 -24
12 -50 24 -21 29 -32 23 -49 -5 -18 -12 -21 -32 -16 l-25 6 21 -30 c43 -60 10
-65 -62 -9 -65 52 -69 61 -44 130 22 60 29 71 105 141 22 21 47 53 56 71 15
31 46 46 46 21z m-5 -276 c0 -7 -8 -15 -17 -17 -18 -3 -25 18 -11 32 10 10 28
1 28 -15z m2560 -223 c19 -8 41 -28 50 -45 13 -27 14 -35 2 -63 -25 -61 -141
-118 -238 -118 -71 0 -142 74 -123 128 11 32 70 80 120 97 51 18 146 19 189 1z
m-2627 -145 c52 -56 67 -83 76 -139 5 -32 2 -51 -11 -72 -14 -24 -14 -31 -4
-44 18 -21 2 -20 -21 1 -22 20 -22 32 -3 69 28 53 20 77 -50 153 -36 39 -65
77 -65 84 0 23 15 29 25 11 5 -10 29 -38 53 -63z m777 -1347 c-8 -16 -15 -36
-15 -44 0 -9 -4 -20 -9 -25 -15 -17 -41 -130 -41 -178 0 -48 -16 -97 -33 -97
-5 0 -6 7 -3 16 4 9 2 13 -5 8 -7 -4 -9 0 -6 12 3 11 9 46 13 79 8 68 30 130
75 210 32 57 52 72 24 19z m-61 -349 c3 -8 1 -15 -4 -15 -6 0 -10 7 -10 15 0
8 2 15 4 15 2 0 6 -7 10 -15z m-184 -26 c-7 -11 -14 -18 -17 -15 -3 3 0 12 7
21 18 21 23 19 10 -6z m1100 -19 c0 -22 -24 -32 -39 -17 -14 14 -14 30 1 45
15 15 38 -2 38 -28z m-935 -20 c3 -5 1 -10 -4 -10 -6 0 -11 5 -11 10 0 6 2 10
4 10 3 0 8 -4 11 -10z m-365 -20 c-6 -11 -13 -20 -16 -20 -2 0 0 9 6 20 6 11
13 20 16 20 2 0 0 -9 -6 -20z m1380 -54 c0 -2 -8 -10 -17 -17 -16 -13 -17 -12
-4 4 13 16 21 21 21 13z m255 -36 c10 -11 16 -20 13 -20 -3 0 -13 9 -23 20
-10 11 -16 20 -13 20 3 0 13 -9 23 -20z m-1669 -29 c0 -11 -4 -17 -8 -15 -4 3
-8 12 -8 20 0 8 4 14 8 14 4 0 8 -9 8 -19z m630 -155 c15 -12 17 -19 8 -32
-16 -27 -31 -28 -44 -4 -12 22 -7 50 8 50 4 0 17 -6 28 -14z m726 -143 c22
-20 23 -36 3 -53 -13 -10 -19 -10 -35 5 -25 22 -27 65 -3 65 9 0 25 -7 35 -17z
m-712 -67 c18 -23 8 -61 -16 -64 -16 -2 -23 4 -28 22 -12 47 17 74 44 42z
m-30 -161 c0 -8 -4 -15 -10 -15 -5 0 -7 7 -4 15 4 8 8 15 10 15 2 0 4 -7 4
-15z m744 -17 c20 -28 20 -33 0 -52 -21 -22 -33 -20 -45 8 -8 17 -8 29 0 45
15 27 26 27 45 -1z m-719 -28 c15 -17 16 -24 7 -45 -14 -30 -47 -33 -62 -6 -7
14 -7 27 2 45 14 31 29 33 53 6z m-65 -84 c0 -3 -4 -8 -10 -11 -5 -3 -10 -1
-10 4 0 6 5 11 10 11 6 0 10 -2 10 -4z m790 -148 c0 -13 -8 -18 -30 -18 -26 0
-30 3 -30 29 0 16 6 31 13 34 17 6 47 -22 47 -45z m53 -159 c8 -11 13 -29 10
-40 -8 -28 -47 -24 -64 7 -12 23 -12 27 6 40 25 19 31 18 48 -7z m875 -66 c41
-43 67 -63 70 -55 2 8 -8 26 -22 41 -58 60 -18 47 56 -19 44 -39 47 -43 34
-62 -8 -11 -28 -29 -45 -39 -30 -18 -31 -18 -31 0 0 21 -16 37 -63 60 -17 9
-33 25 -35 36 -8 52 -13 63 -37 69 -14 4 -25 13 -25 21 0 32 36 12 98 -52z
m-1951 -70 c-9 -21 -17 -47 -19 -58 -2 -15 -12 -20 -37 -22 -18 -1 -38 -6 -44
-12 -17 -17 -37 7 -37 43 0 43 52 93 100 98 49 5 56 -5 37 -49z m833 -123 c22
-22 17 -46 -11 -55 -25 -8 -35 -1 -43 31 -5 18 -3 30 6 35 19 13 26 11 48 -11z
m-115 -190 c8 -27 -12 -52 -39 -48 -21 3 -32 28 -22 54 8 22 54 18 61 -6z
m851 -1069 c61 -127 51 -240 -24 -284 -47 -28 -102 -25 -156 7 -25 15 -46 32
-46 38 0 5 12 2 28 -8 l27 -18 -28 35 c-44 55 -77 124 -94 200 -8 38 -13 72
-11 74 3 3 30 0 62 -6 65 -12 104 -3 151 35 38 31 45 25 91 -73z m-671 -11 c4
-17 25 -53 47 -81 60 -76 78 -123 78 -206 0 -66 -3 -76 -28 -104 -17 -19 -46
-36 -77 -45 -39 -11 -42 -13 -14 -10 29 3 66 17 123 44 16 8 -1 -79 -19 -98
-10 -11 -46 -29 -82 -41 -127 -42 -276 -1 -333 93 -36 58 -37 64 -8 44 43 -30
54 -17 16 19 -20 19 -42 43 -47 54 -16 28 -13 119 4 177 24 77 27 80 68 55 41
-25 98 -27 138 -4 15 9 47 43 70 75 24 32 46 58 50 58 4 0 10 -14 14 -30z"/>
<path d="M8000 9013 c-8 -4 -29 -22 -47 -41 -20 -21 -38 -32 -47 -29 -10 4
-13 1 -9 -9 8 -21 13 -18 73 36 55 49 58 53 30 43z"/>
<path d="M7843 8973 c9 -2 25 -2 35 0 9 3 1 5 -18 5 -19 0 -27 -2 -17 -5z"/>
<path d="M7773 8963 c9 -2 25 -2 35 0 9 3 1 5 -18 5 -19 0 -27 -2 -17 -5z"/>
<path d="M8640 8928 c-19 -17 -48 -39 -65 -49 -16 -10 -25 -19 -19 -19 14 0
96 53 113 74 24 29 8 25 -29 -6z"/>
<path d="M8820 8840 c0 -5 5 -10 11 -10 5 0 7 5 4 10 -3 6 -8 10 -11 10 -2 0
-4 -4 -4 -10z"/>
<path d="M8827 8774 c-13 -18 -14 -22 -3 -18 8 3 17 13 20 21 10 25 3 23 -17
-3z"/>
<path d="M8960 8590 c-6 -11 -8 -20 -6 -20 3 0 10 9 16 20 6 11 8 20 6 20 -3
0 -10 -9 -16 -20z"/>
<path d="M6746 8629 c-14 -11 -26 -25 -26 -31 0 -7 8 -4 18 6 9 9 26 23 37 31
11 8 15 15 9 15 -6 0 -23 -9 -38 -21z"/>
<path d="M6568 8370 c-3 -17 -1 -33 4 -36 4 -3 8 11 8 30 0 44 -6 47 -12 6z"/>
<path d="M6556 8274 c-4 -14 -5 -28 -3 -31 3 -2 8 8 11 23 4 14 5 28 3 31 -3
2 -8 -8 -11 -23z"/>
<path d="M6601 8234 c0 -11 3 -14 6 -6 3 7 2 16 -1 19 -3 4 -6 -2 -5 -13z"/>
<path d="M7265 8070 c-166 -43 -260 -96 -358 -199 -69 -72 -97 -128 -97 -196
0 -84 40 -132 119 -142 41 -6 43 -4 116 66 81 79 149 115 282 153 112 31 281
31 377 0 97 -31 163 -70 187 -109 40 -64 100 -82 140 -42 41 41 13 148 -65
257 -125 176 -459 276 -701 212z m310 -20 c145 -34 267 -106 340 -201 20 -26
34 -53 30 -59 -4 -6 -18 5 -35 28 -55 76 -153 141 -285 188 -71 25 -94 28
-200 29 -66 0 -131 -4 -145 -8 -25 -9 -25 -9 -3 7 52 39 173 45 298 16z"/>
<path d="M8751 7734 c-74 -15 -209 -69 -198 -80 3 -3 17 2 31 11 14 9 65 27
113 41 70 19 114 24 218 25 102 1 119 3 80 9 -75 12 -162 10 -244 -6z"/>
<path d="M7625 7584 c-205 -31 -385 -111 -506 -225 -19 -19 -26 -27 -15 -18
85 65 196 134 263 163 145 62 284 76 513 51 l45 -5 -43 15 c-44 14 -205 26
-257 19z"/>
<path d="M7595 7405 c-233 -42 -463 -175 -579 -334 -51 -69 -45 -71 14 -7 48
51 121 112 182 151 l28 17 -14 -34 c-8 -19 -18 -58 -22 -86 -22 -168 163 -292
416 -280 74 4 98 10 185 48 110 49 173 103 206 175 23 49 25 152 5 200 -14 31
-13 35 7 48 19 12 20 17 8 30 -21 25 -110 64 -175 76 -76 14 -172 13 -261 -4z
m256 -153 c54 -60 32 -130 -66 -204 -66 -51 -140 -72 -222 -65 -71 7 -112 25
-142 63 -49 62 -3 148 109 204 71 36 89 39 193 37 98 -2 99 -2 128 -35z"/>
<path d="M8275 5873 c-16 -2 -47 -8 -68 -14 -48 -13 -39 -34 12 -24 70 14 144
7 163 -16 18 -21 38 -18 38 6 0 31 -76 56 -145 48z"/>
<path d="M6339 7832 c-10 -26 -7 -107 4 -118 3 -4 11 -3 16 1 8 4 7 11 -2 20
-18 17 -15 111 2 100 5 -3 12 -1 15 4 3 5 -1 12 -9 15 -11 4 -19 -3 -26 -22z"/>
<path d="M7720 2530 c0 -5 10 -10 23 -10 18 0 19 2 7 10 -19 13 -30 13 -30 0z"/>
<path d="M7132 3765 c-40 -17 -34 -35 12 -35 40 0 68 26 45 41 -18 11 -17 11
-57 -6z"/>
<path d="M7015 3728 c11 -37 23 -44 42 -26 13 14 14 20 3 32 -7 9 -21 16 -32
16 -15 0 -18 -5 -13 -22z"/>
<path d="M7130 3680 c-16 -16 -18 -25 -10 -40 5 -10 15 -22 20 -25 6 -3 10
-16 10 -29 0 -30 18 -46 51 -46 38 0 59 10 59 27 0 12 -8 14 -35 10 -45 -7
-54 8 -15 28 42 21 38 33 -12 37 -46 3 -55 21 -13 26 14 2 25 10 25 18 0 22
-57 17 -80 -6z"/>
<path d="M7232 3509 c-18 -17 -32 -38 -32 -48 0 -40 76 -73 104 -45 22 21 20
40 -6 66 -13 13 -22 28 -20 35 5 24 -15 21 -46 -8z m37 -45 c30 -21 14 -38
-22 -25 -27 10 -33 21 -20 34 10 10 16 9 42 -9z"/>
<path d="M7240 3382 c0 -11 5 -24 10 -27 8 -5 7 -12 -2 -22 -12 -14 -8 -15 36
-9 27 4 55 10 63 13 26 10 6 28 -27 25 -23 -2 -40 4 -57 19 l-23 22 0 -21z"/>
<path d="M7282 3288 c-20 -20 -14 -65 10 -82 43 -30 98 -15 98 26 0 46 -78 86
-108 56z m63 -38 c14 -16 16 -23 6 -33 -16 -16 -45 3 -49 32 -4 27 19 28 43 1z"/>
<path d="M7280 3150 c-44 -44 -37 -121 17 -181 19 -21 40 -39 45 -39 6 0 -4
16 -21 35 -40 46 -56 106 -39 143 20 41 50 39 92 -4 l37 -38 -23 -13 c-13 -7
-31 -12 -40 -13 -37 0 -16 -20 21 -20 22 0 43 -4 46 -10 12 -20 35 -10 35 15
0 37 -23 77 -65 114 -41 36 -76 40 -105 11z"/>
<path d="M7309 2211 c-71 -23 -114 -48 -130 -78 -11 -21 -6 -37 54 -156 36
-72 71 -145 77 -161 14 -37 21 -29 56 62 20 53 33 72 46 72 30 0 91 29 122 58
62 59 65 134 6 183 -52 44 -135 51 -231 20z m141 -30 c0 -13 -62 -175 -69
-181 -3 -3 -6 -12 -6 -20 0 -8 -8 -16 -17 -18 -10 -2 -18 1 -18 7 0 6 5 11 12
11 6 0 9 3 6 6 -8 8 -48 -14 -48 -26 0 -6 11 -10 25 -10 30 0 30 -2 8 -65
l-16 -49 -63 125 c-35 68 -63 134 -63 146 -1 26 30 49 91 68 49 16 158 19 158
6z m65 -7 c29 -11 44 -61 31 -99 -7 -18 -18 -40 -26 -50 -17 -20 -83 -55 -105
-55 -30 0 3 39 55 65 28 14 50 28 50 30 0 3 -18 -4 -41 -15 -23 -12 -43 -20
-45 -18 -5 6 50 148 58 148 3 0 14 -3 23 -6z"/>
<path d="M8442 2150 c-5 -14 -24 -67 -42 -117 -18 -51 -36 -93 -39 -93 -4 0
-17 20 -31 45 -14 25 -29 44 -35 42 -13 -5 -10 -196 4 -210 13 -13 40 8 52 42
l10 24 22 -22 c26 -23 47 -27 65 -9 8 8 15 8 28 -3 15 -12 21 -8 58 34 23 26
45 47 49 47 3 0 -1 -16 -9 -35 -7 -19 -14 -39 -14 -45 0 -19 34 -10 63 18 l29
27 -7 -27 c-9 -36 10 -37 46 -2 l28 26 27 -21 c40 -31 83 -40 142 -28 29 6 52
15 52 20 0 4 -9 6 -20 3 -11 -3 -29 -8 -40 -12 -32 -9 -97 14 -114 41 -21 31
-27 31 -67 -2 l-32 -28 6 45 7 45 -40 -45 c-44 -49 -48 -48 -25 7 19 44 19 53
1 53 -8 0 -35 -23 -60 -51 -26 -29 -49 -49 -52 -46 -3 3 6 28 20 56 30 58 31
61 12 61 -7 0 -23 -22 -35 -50 -24 -57 -64 -89 -89 -74 -38 25 -38 39 11 160
32 82 44 122 37 133 -7 14 -10 12 -18 -9z m-110 -220 c14 -24 15 -35 5 -60
-16 -43 -27 -37 -27 14 0 24 -3 51 -6 60 -11 28 10 17 28 -14z"/>
<path d="M7637 2128 c-21 -11 -36 -22 -33 -25 2 -2 14 0 25 7 12 6 21 8 21 5
0 -3 -29 -64 -66 -136 -36 -72 -64 -138 -62 -147 2 -11 28 15 77 76 40 51 75
91 77 89 2 -2 -7 -32 -21 -67 -14 -35 -25 -70 -25 -77 0 -25 25 -12 60 32 42
54 56 58 35 9 -18 -44 -19 -54 -2 -54 7 0 30 23 52 51 22 29 41 46 43 39 2 -6
-1 -17 -7 -23 -6 -6 -11 -24 -11 -39 0 -34 21 -37 50 -8 24 24 34 26 26 5 -12
-32 25 -28 54 6 l29 34 -6 -32 c-7 -41 7 -43 49 -8 17 14 32 24 34 22 2 -2 -5
-22 -16 -45 -11 -23 -23 -56 -27 -73 -11 -56 18 -28 47 46 29 73 81 145 106
145 22 0 17 -9 -26 -51 -46 -45 -50 -59 -16 -59 23 0 76 49 76 71 0 5 15 19
33 30 l32 20 -32 -6 c-21 -4 -33 -3 -33 4 0 17 -41 13 -63 -6 -15 -14 -21 -15
-24 -5 -3 7 -26 -9 -60 -43 -31 -31 -58 -53 -60 -51 -3 3 9 30 27 61 34 60 32
90 -4 40 -26 -37 -88 -96 -94 -90 -3 2 14 43 37 91 22 47 41 90 41 95 0 24
-19 2 -53 -64 -36 -68 -94 -144 -103 -135 -5 6 41 125 61 154 17 26 19 44 6
44 -5 0 -23 -24 -40 -52 -33 -57 -101 -138 -101 -121 0 6 12 36 26 67 14 32
23 60 19 64 -3 4 -11 -2 -18 -13 -13 -23 -99 -117 -103 -112 -2 1 3 21 10 42
41 119 26 136 -43 50 -24 -30 -46 -53 -48 -51 -2 2 19 49 47 104 27 56 50 104
50 107 0 8 -11 4 -53 -17z m503 -243 c-7 -8 -17 -15 -23 -15 -5 0 -2 9 8 20
21 23 35 19 15 -5z"/>
<path d="M7803 2116 c2 -6 12 -11 22 -11 10 0 20 5 22 11 2 7 -7 12 -22 12
-15 0 -24 -5 -22 -12z"/>
<path d="M8590 2092 c-21 -17 -20 -52 2 -52 6 0 8 7 5 15 -4 8 5 23 20 35 17
13 21 20 10 20 -8 0 -25 -8 -37 -18z"/>
<path d="M8060 2044 c0 -8 5 -12 10 -9 6 3 10 10 10 16 0 5 -4 9 -10 9 -5 0
-10 -7 -10 -16z"/>
<path d="M6872 2038 c-20 -20 -14 -28 13 -16 19 9 28 9 37 0 15 -15 -7 -42
-33 -42 -25 0 -24 -8 4 -30 21 -18 21 -20 5 -36 -15 -16 -21 -16 -43 -4 -29
16 -43 7 -25 -15 20 -24 69 -15 93 18 16 21 18 30 9 39 -9 9 -8 16 4 29 9 10
14 28 12 41 -2 17 -10 24 -33 26 -17 2 -36 -3 -43 -10z"/>
<path d="M7053 2029 c-18 -12 -30 -25 -27 -30 3 -6 11 -5 20 2 24 19 27 3 10
-48 -19 -59 -20 -67 -7 -71 5 -2 19 29 31 69 12 39 24 78 27 85 8 20 -17 17
-54 -7z"/>
<path d="M6977 1963 c-12 -11 -8 -23 8 -23 8 0 15 7 15 15 0 16 -12 20 -23 8z"/>
<path d="M9160 1929 c-49 -17 -51 -19 -15 -13 41 6 111 33 85 32 -8 0 -40 -9
-70 -19z"/>
</g>
</svg>
