<?xml version="1.0" standalone="no"?><!DOCTYPE svg PUBLIC "-//W3C//DTD SVG 1.1//EN" "http://www.w3.org/Graphics/SVG/1.1/DTD/svg11.dtd"><svg t="1703913436491" class="icon" viewBox="0 0 1024 1024" version="1.1" xmlns="http://www.w3.org/2000/svg" p-id="2376" width="64" height="64" xmlns:xlink="http://www.w3.org/1999/xlink"><path d="M569.28 571.2a118.72 118.72 0 0 0-74.56-20.48h-72.64v160h73.6a110.72 110.72 0 0 0 73.28-21.76 73.6 73.6 0 0 0 26.56-60.16 68.16 68.16 0 0 0-26.24-57.6zM547.84 437.12a69.12 69.12 0 0 0 24.32-56.64c0-44.48-32-66.56-96-66.56h-54.08v143.36H480a101.76 101.76 0 0 0 67.84-20.16z" fill="#0EC916" p-id="2377"></path><path d="M512 0a512 512 0 1 0 512 512A512 512 0 0 0 512 0z m157.44 755.84a235.2 235.2 0 0 1-153.92 46.72H298.56V221.44h206.08a252.48 252.48 0 0 1 146.24 36.16A115.2 115.2 0 0 1 704 357.44a120.32 120.32 0 0 1-32 82.88 163.84 163.84 0 0 1-80.32 48.96v1.6a160 160 0 0 1 98.24 44.8 129.92 129.92 0 0 1 37.12 96 155.52 155.52 0 0 1-57.6 124.16z" fill="#0EC916" p-id="2378"></path></svg>