<?xml version="1.0" standalone="no"?><!DOCTYPE svg PUBLIC "-//W3C//DTD SVG 1.1//EN" "http://www.w3.org/Graphics/SVG/1.1/DTD/svg11.dtd"><svg t="1703165424187" class="icon" viewBox="0 0 1024 1024" version="1.1" xmlns="http://www.w3.org/2000/svg" p-id="5065" xmlns:xlink="http://www.w3.org/1999/xlink" width="200" height="200"><path d="M517.12 526.40256m-446.40256 0a446.40256 446.40256 0 1 0 892.80512 0 446.40256 446.40256 0 1 0-892.80512 0Z" fill="" p-id="5066"></path><path d="M517.12 497.60256m-446.40256 0a446.40256 446.40256 0 1 0 892.80512 0 446.40256 446.40256 0 1 0-892.80512 0Z" fill="#D95E5E" p-id="5067"></path><path d="M517.12 497.60256m-331.20256 0a331.20256 331.20256 0 1 0 662.40512 0 331.20256 331.20256 0 1 0-662.40512 0Z" fill="#F4F0E6" p-id="5068"></path><path d="M517.12 137.6c-198.82496 0-360.00256 161.17248-360.00256 360.00256 0 198.81472 161.1776 360.00256 360.00256 360.00256 198.81472 0 360.00256-161.18272 360.00256-360.00256 0-198.83008-161.18784-360.00256-360.00256-360.00256z m0 676.80256c-174.96576 0-316.8-141.83424-316.8-316.8S342.15424 180.80256 517.12 180.80256s316.8 141.83424 316.8 316.8-141.83424 316.8-316.8 316.8z" fill="#E4DED0" p-id="5069"></path><path d="M517.12 180.80256a14.39744 14.39744 0 0 0-14.40256 14.40256v43.20256a14.40768 14.40768 0 0 0 28.80512 0v-43.20256A14.3872 14.3872 0 0 0 517.12 180.80256zM517.12 742.4a14.39744 14.39744 0 0 0-14.40256 14.40256v43.20256a14.40768 14.40768 0 0 0 28.80512 0v-43.20256A14.39232 14.39232 0 0 0 517.12 742.4z m302.40256-259.2h-43.20256a14.40256 14.40256 0 0 0 0 28.80512h43.20256a14.40256 14.40256 0 0 0 0-28.80512z m-561.60256 0h-43.20256a14.39744 14.39744 0 1 0 0 28.80512h43.20256a14.39744 14.39744 0 1 0 0-28.80512z" fill="#DCD8CD" p-id="5070"></path><path d="M718.72 526.40256h-187.20256v28.8h187.20256a14.40256 14.40256 0 0 0 0-28.8z" fill="" p-id="5071"></path><path d="M704.32256 468.80256h-172.8a28.80512 28.80512 0 0 0 0 57.6h172.8a28.80512 28.80512 0 0 0 0-57.6z" fill="#D95E5E" p-id="5072"></path><path d="M520.23808 467.2L367.5136 314.46528a28.8 28.8 0 1 0-40.7296 40.73984l152.73984 152.73472a28.8 28.8 0 0 0 40.71424-40.73984z" fill="#D95E5E" p-id="5073"></path><path d="M509.92128 519.19872m-64.79872 0a64.79872 64.79872 0 1 0 129.59744 0 64.79872 64.79872 0 1 0-129.59744 0Z" fill="" p-id="5074"></path><path d="M509.92128 490.39872m-64.79872 0a64.79872 64.79872 0 1 0 129.59744 0 64.79872 64.79872 0 1 0-129.59744 0Z" fill="#FFFFFF" p-id="5075"></path></svg>