<?xml version="1.0" standalone="no"?><!DOCTYPE svg PUBLIC "-//W3C//DTD SVG 1.1//EN" "http://www.w3.org/Graphics/SVG/1.1/DTD/svg11.dtd"><svg t="1711939562841" class="icon" viewBox="0 0 1024 1024" version="1.1" xmlns="http://www.w3.org/2000/svg" p-id="4259" xmlns:xlink="http://www.w3.org/1999/xlink" width="64" height="64"><path d="M170.667 85.333H268.8V602.24a269.739 269.739 0 0 0 56.363 186.24A241.152 241.152 0 0 0 512 854.101a243.499 243.499 0 0 0 186.837-65.621 275.157 275.157 0 0 0 56.278-186.368V85.333h98.133v515.755a342.016 342.016 0 0 1-85.035 249.685 346.24 346.24 0 0 1-256.298 87.894q-168.875 0-255.104-86.742a343.296 343.296 0 0 1-86.144-250.837z" p-id="4260" fill="#a067f0"></path></svg>