<svg xmlns:xlink="http://www.w3.org/1999/xlink" xmlns="http://www.w3.org/2000/svg" width="30.25" height="22" fill="none"><path fill-rule="evenodd" clip-rule="evenodd" d="M2.73 13.27a3.726 3.726 0 010-5.205l5.207-5.332a3.726 3.726 0 015.33 5.206L8.06 13.27a3.726 3.726 0 01-5.33 0z" fill="#12D2AC"></path><path fill-rule="evenodd" clip-rule="evenodd" d="M7.94 2.732a3.725 3.725 0 015.332 0l5.207 5.333a3.725 3.725 0 11-5.33 5.205L7.94 7.938a3.726 3.726 0 010-5.206z" fill="#307AF2"></path><path fill-rule="evenodd" clip-rule="evenodd" d="M7.738 2.93a4 4 0 015.724 0l2.345 2.402-5.207 5.333-5.207-5.333L7.738 2.93z" fill="#0057FE"></path></svg>