<svg width="350" height="130" xmlns="http://www.w3.org/2000/svg" version="1.1">

 <g>
  <title>background</title>
  <rect fill="none" id="canvas_background" height="132" width="352" y="-1" x="-1"/>
 </g>
 <g>
  <title>Layer 1</title>
  <g fill-rule="evenodd" fill="none" id="北向">
   <g stroke="null" fill="none" id="北向_开发者社区">
    <g stroke="null" fill="none" id="编组-26">
     <rect stroke="null" fill="none" height="66.999998" width="588.999958" y="41.000002" x="28" id="矩形"/>
     <g stroke="null" fill="none" id="编组-6">
      <path stroke="null" fill="#454ce1" id="Fill-19" d="m324.961546,88.964798c2.10506,-1.014346 3.741185,-2.468045 4.90281,-4.360963c1.164505,-1.892649 1.745349,-4.08777 1.745349,-6.585095c0,-5.892784 -3.378627,-9.853723 -10.136948,-11.882818l-5.65016,-1.756204c-2.178685,-0.663534 -3.775975,-1.492961 -4.791547,-2.487676c-1.01651,-0.995385 -1.523342,-2.214785 -1.523342,-3.658736c0,-1.795097 0.728127,-3.28769 2.188135,-4.478112c1.458487,-1.190087 3.296005,-1.785148 5.511486,-1.785148c1.994153,0 3.77604,0.526787 5.345336,1.580429c1.406577,0.944901 2.497327,2.172441 3.263869,3.682186c0.048932,0.094771 0.140551,0.26934 0.274888,0.523806c0.230195,-0.151051 0.389128,-0.254834 0.476961,-0.311081l4.015264,-2.573972c0.072201,-0.046464 0.204208,-0.140599 0.396313,-0.282572c-0.081004,-0.206125 -0.143302,-0.356574 -0.186991,-0.451379c-1.117288,-2.392972 -2.821342,-4.286191 -5.109089,-5.679757c-2.438136,-1.482978 -5.263621,-2.224433 -8.476551,-2.224433c-2.695678,0 -5.10527,0.518412 -7.228842,1.551251c-2.12438,1.034279 -3.786266,2.507542 -4.98527,4.419454c-1.200136,1.91228 -1.80043,4.097753 -1.80043,6.556184c0,5.775601 3.305196,9.697613 9.915523,11.765635l6.093172,1.873353c2.068134,0.663333 3.600537,1.492592 4.598536,2.487609c0.99651,0.995117 1.494701,2.216058 1.494701,3.658468c0,1.834359 -0.728192,3.326952 -2.18752,4.478146c-1.460202,1.151127 -3.333222,1.726824 -5.622717,1.726824c-2.710791,0 -5.22265,-0.857566 -7.535445,-2.572699c-0.926575,-0.687185 -1.704864,-1.592891 -2.218815,-2.659263c-0.073431,-0.152559 -0.226053,-0.45838 -0.457672,-0.917632c-0.390682,0.214735 -0.673013,0.372453 -0.847092,0.473321l-3.898079,2.258972c-0.071295,0.041339 -0.213334,0.13065 -0.426216,0.267933c0.082784,0.212591 0.1478,0.370108 0.195082,0.472685c1.169845,2.541209 3.085259,4.55533 5.743591,6.042663c2.825193,1.580429 6.046052,2.370493 9.666072,2.370493c2.732604,0 5.151581,-0.507223 7.255638,-1.521871"/>
      <path stroke="null" fill="#454ce1" id="Fill-21" d="m253.667696,58.901363l-1.111883,0.008743l-5.440029,-0.001574l-0.167541,-0.001105l-0.188836,0.506017l-7.631595,22.063066l-7.615705,-22.020722c-0.021392,-0.062042 -0.058835,-0.182943 -0.11123,-0.359555l-0.053107,-0.179459l-0.526961,-0.006465l-6.591686,0.00134l0.364371,0.918737c0.036052,0.092426 0.063269,0.163614 0.081716,0.213261l11.140902,30.086583l-5.412877,13.203757c-0.057864,0.1408 -0.171069,0.402603 -0.338707,0.783464l-0.160551,0.364748l1.22033,0.012227l5.492619,0l16.83747,-45.013278l0.213302,-0.579784z"/>
      <path stroke="null" fill="#454ce1" id="Fill-23" d="m211.021122,58.090831c-2.145934,0 -4.061284,0.49848 -5.742944,1.496512l-0.20848,0.127065c-1.306868,0.817132 -2.360272,1.873889 -3.158011,3.168564l-0.086214,0.142978l-0.400358,-4.115776l-5.329058,0l0,31.133927l6.418352,0l0,-17.820693c0,-2.35582 0.642884,-4.242741 1.927033,-5.675c1.281787,-1.429813 2.934191,-2.14333 4.973296,-2.14333c1.889492,0 3.382737,0.653551 4.498147,1.962765c1.119682,1.314841 1.681563,3.087192 1.681563,5.328711l0,18.347547l6.362947,0l0,-19.635421c0,-2.419939 -0.461297,-4.5694 -1.384862,-6.441815c-0.925539,-1.87677 -2.213345,-3.327722 -3.860215,-4.347864c-1.645672,-1.01917 -3.544129,-1.528169 -5.691196,-1.528169"/>
      <path stroke="null" fill="#454ce1" id="Fill-25" d="m177.827706,64.229371c-2.439204,0 -4.391804,0.932908 -5.876925,2.804854c-1.49305,1.881527 -2.241533,4.368768 -2.241533,7.472175c0,3.064982 0.747998,5.531218 2.241533,7.41365c1.48496,1.871812 3.437591,2.804553 5.876925,2.804553c2.40257,0 4.336464,-0.932238 5.822426,-2.804553c1.493244,-1.882432 2.241242,-4.348836 2.241242,-7.41365c0,-3.103272 -0.748418,-5.590647 -2.241242,-7.472175c-1.486092,-1.872382 -3.419986,-2.804854 -5.822426,-2.804854m0,-6.138506c2.849465,0 5.376178,0.684807 7.575349,2.055325c2.200497,1.37149 3.921931,3.3098 5.161549,5.810675c1.237677,2.496956 1.855965,5.348141 1.855965,8.549535c0,3.202164 -0.618515,6.044539 -1.856321,8.521395c-1.239813,2.480809 -2.961181,4.409102 -5.161128,5.780257c-2.198944,1.370619 -4.725463,2.055426 -7.575413,2.055426c-2.849109,0 -5.384528,-0.684673 -7.601659,-2.054957c-2.218718,-1.371255 -3.949827,-3.299716 -5.189672,-5.780726c-1.237806,-2.476856 -1.856321,-5.31923 -1.856321,-8.521395c0,-3.240522 0.618223,-6.101355 1.856321,-8.579919c1.239845,-2.48101 2.970955,-4.409538 5.189672,-5.780726c2.217488,-1.37015 4.752971,-2.05489 7.601659,-2.05489"/>
      <path stroke="null" fill="#454ce1" id="Fill-27" d="m149.935192,58.093511c1.969363,0.041506 3.719923,0.560823 5.244171,1.558051c1.589976,1.040242 2.820824,2.501277 3.691929,4.379823c0.828937,1.791144 1.260719,3.814008 1.296706,6.068458l0.00246,0.30887l0,19.635321l-6.363077,0l0,-18.932792c0,-2.047721 -0.507284,-3.674246 -1.517743,-4.891938c-1.004439,-1.209517 -2.368686,-1.814192 -4.108437,-1.814192c-1.891952,0 -3.41387,0.654556 -4.584912,1.967187c-1.131592,1.268176 -1.718488,2.923009 -1.758877,4.977296l-0.00233,0.229877l0,18.464563l-6.36285,0l0,-18.932792c0,-2.046883 -0.515828,-3.672772 -1.543924,-4.890229c-1.024213,-1.210857 -2.397812,-1.815901 -4.137401,-1.815901c-1.854185,0 -3.358691,0.654556 -4.529701,1.967187c-1.131592,1.268176 -1.718488,2.923009 -1.758942,4.977296l-0.002265,0.229877l0,18.464563l-6.418287,0l0,-31.133894l5.40045,0l0.337542,4.028609l0.076376,-0.128472c0.75803,-1.250052 1.755155,-2.279909 2.989304,-3.087695l0.207833,-0.132593c1.608035,-0.999338 3.39607,-1.499125 5.359285,-1.499125c2.002697,0 3.792933,0.520389 5.365239,1.561535c1.433568,0.949926 2.592053,2.233076 3.471831,3.844929l0.021877,0.041071c0.828807,-1.566795 1.98603,-2.821772 3.471831,-3.76483l0.204629,-0.126663c1.646352,-0.994146 3.457786,-1.511955 5.430871,-1.553395l0.258286,-0.002646l0.258124,0.002646z"/>
      <path stroke="null" fill="#454ce1" id="Fill-29" d="m110.91223,58.441911c-2.034898,0 -3.812157,0.449536 -5.327505,1.350586l-0.196118,0.119863c-1.164569,0.732008 -2.109235,1.692788 -2.831989,2.879995l-0.054078,0.091321l-0.32806,-3.973535l-5.854757,0l0,31.133927l6.418287,0l0,-17.820626c0,-2.272271 0.675602,-4.066397 2.026969,-5.4003c1.354862,-1.337487 3.196522,-2.008425 5.537862,-2.008425c0.839584,0 1.570979,0.043215 2.19053,0.128673l0.184888,0.033131c0.080454,0.01608 0.179451,0.037419 0.296571,0.063683l0.382688,0.087167l0.013981,-0.784067c0.001262,-0.097016 0.001942,-0.171754 0.001942,-0.224383l0.001262,-5.16647l0.000777,-0.19899l-0.181651,-0.052494c-0.210001,-0.060702 -0.364824,-0.100131 -0.468287,-0.118824c-0.519258,-0.093666 -1.123598,-0.140231 -1.813311,-0.140231"/>
      <path stroke="null" fill="#454ce1" id="Fill-31" d="m84.197068,76.053966l-5.996246,0c-1.832599,0 -3.303707,0.452116 -4.420995,1.351591c-1.103339,0.888755 -1.647938,2.0033 -1.647938,3.364405c0,1.364019 0.499355,2.438264 1.509264,3.246652c1.02486,0.821788 2.357618,1.234776 4.005685,1.234776c2.115901,0 3.778143,-0.666717 5.003102,-1.998911c1.185476,-1.289281 1.79878,-2.955269 1.839622,-5.011935l0.002233,-0.221837l0,-1.653593c0,-0.171821 -0.131942,-0.311148 -0.294727,-0.311148m-5.331453,-17.963168c3.637366,0 6.539065,0.985536 8.691536,2.961266c2.111338,1.937405 3.191247,4.648192 3.240341,8.112829l0.001683,0.248737l0,20.630438l-5.332683,0l-0.39531,-3.600479l-0.091845,0.139125c-0.705959,1.033039 -1.606319,1.882398 -2.699141,2.54677l-0.221134,0.130382l-0.20081,0.111689c-1.552177,0.839644 -3.38031,1.257925 -5.485272,1.257925c-3.121182,0 -5.669998,-0.867884 -7.635899,-2.607104c-1.976516,-1.747058 -2.968398,-4.034974 -2.968398,-6.843011c0,-2.005846 0.523045,-3.785366 1.56907,-5.331257c1.042174,-1.541804 2.489916,-2.741539 4.338794,-3.598838c1.760495,-0.817065 3.777496,-1.242682 6.047217,-1.278092l0.311102,-0.002445l6.456508,0l0.000421,-0.735459c0,-1.896937 -0.45832,-3.353651 -1.369813,-4.384178l-0.103107,-0.11266l-0.110874,-0.113263c-1.0591,-1.044362 -2.514188,-1.569542 -4.374652,-1.569542c-1.475704,0 -2.811213,0.331717 -4.013161,0.995251c-1.052498,0.580287 -1.945771,1.385928 -2.681406,2.418767l-0.042654,0.064018c-0.025728,0.040334 -0.05822,0.093029 -0.096991,0.157751l-0.135114,0.229843l-0.13958,0.240597l-0.554048,-0.431245l-0.129904,-0.103079l-3.307494,-2.65655c-0.053495,-0.042913 -0.133593,-0.110751 -0.241069,-0.203914l-0.297898,-0.260831l0.18848,-0.360828c0.070777,-0.131487 0.12835,-0.231116 0.173884,-0.300428c1.141139,-1.734462 2.668137,-3.107125 4.575009,-4.114972c2.064995,-1.091731 4.411739,-1.637212 7.034213,-1.637212"/>
      <polygon stroke="null" points="34.69548416137695,46.67622375488281 28,46.67622375488281 28,90.0440673828125 34.69548416137695,90.0440673828125 34.69528579711914,70.90231323242188 54.6439208984375,70.90231323242188 54.644187927246094,90.0440673828125 61.339622497558594,90.0440673828125 61.339622497558594,46.67622375488281 54.644187927246094,46.67622375488281 54.6439208984375,64.41230773925781 34.69528579711914,64.41230773925781 " fill="#454ce1" id="Fill-33"/>
      <path stroke="null" fill="#454ce1" id="Fill-35" d="m278.837865,52.549295c-8.276776,0 -14.98636,7.090308 -14.98636,15.836722c0,8.746414 6.709583,15.836823 14.98636,15.836823c8.276776,0 14.986424,-7.090409 14.986424,-15.836823c0,-8.746414 -6.709648,-15.836722 -14.986424,-15.836722m0,-6.750082c11.804562,0 21.374064,10.112477 21.374064,22.586805c0,12.474395 -9.569502,22.586905 -21.374064,22.586905c-11.804498,0 -21.374064,-10.112511 -21.374064,-22.586905c0,-12.474328 9.569566,-22.586805 21.374064,-22.586805"/>
      <polygon stroke="null" points="264.58856201171875,104.21347045898438 293.0872497558594,104.21347045898438 293.0872497558594,97.98262023925781 264.58856201171875,97.98262023925781 " fill="#1F69FF" id="Fill-37"/>
      <path stroke="null" fill-rule="nonzero" fill="#454ce1" id="形状" d="m429.297127,72.63442c0,0.922757 -0.094887,2.026046 -0.284726,3.3099l-20.786132,0c0.265762,3.129335 1.195929,5.486362 2.790468,7.071113c1.594572,1.584717 3.587754,2.377093 5.979579,2.377093c3.113156,0 5.3721,-1.364086 6.776833,-4.092226l4.385008,2.708073c-0.759292,2.166478 -2.201986,3.841478 -4.328049,5.025c-2.126063,1.183555 -4.498924,1.775299 -7.11855,1.775299c-2.695549,0 -5.1443,-0.631877 -7.346318,-1.895631c-2.201986,-1.263787 -3.957886,-3.139385 -5.267698,-5.626827c-1.309813,-2.487408 -1.964736,-5.456279 -1.964736,-8.906578c0,-3.370066 0.654923,-6.278737 1.964736,-8.726046c1.309813,-2.447309 3.05623,-4.30284 5.239219,-5.566628c2.183022,-1.263754 4.546368,-1.895631 7.090071,-1.895631c2.581664,0 4.840609,0.631877 6.776833,1.895631c1.936256,1.263787 3.435876,2.988937 4.498924,5.175448c1.063015,2.186545 1.594539,4.64387 1.594539,7.37201zm-20.900016,-1.384119l14.692669,0c-0.113884,-2.447309 -0.787771,-4.332923 -2.021661,-5.656877c-1.23389,-1.323953 -2.856909,-1.985947 -4.869088,-1.985947c-1.936224,0 -3.606719,0.661993 -5.011451,1.985947c-1.4047,1.323953 -2.334867,3.209568 -2.790468,5.656877z"/>
      <polygon stroke="null" points="444.974365234375,82.0826416015625 453.0610046386719,58.91346740722656 459.15447998046875,58.91346740722656 447.0245056152344,90.14671325683594 442.2978210449219,90.14671325683594 429.7691955566406,58.91346740722656 436.3752136230469,58.91346740722656 " fill-rule="nonzero" fill="#454ce1" id="路径"/>
      <path stroke="null" fill-rule="nonzero" fill="#454ce1" id="形状" d="m486.449153,72.63442c0,0.922757 -0.094887,2.026046 -0.284726,3.3099l-20.7861,0c0.265762,3.129335 1.195896,5.486362 2.790468,7.071113c1.594539,1.584717 3.587722,2.377093 5.979547,2.377093c3.113188,0 5.372133,-1.364086 6.776865,-4.092226l4.385008,2.708073c-0.759325,2.166478 -2.202018,3.841478 -4.328082,5.025c-2.126063,1.183555 -4.498892,1.775299 -7.118518,1.775299c-2.695549,0 -5.144332,-0.631877 -7.346351,-1.895631c-2.201986,-1.263787 -3.957886,-3.139385 -5.267698,-5.626827c-1.309813,-2.487408 -1.964703,-5.456279 -1.964703,-8.906578c0,-3.370066 0.65489,-6.278737 1.964703,-8.726046c1.309813,-2.447309 3.05623,-4.30284 5.239252,-5.566628c2.182989,-1.263754 4.546368,-1.895631 7.090038,-1.895631c2.581664,0 4.840609,0.631877 6.776865,1.895631c1.936224,1.263787 3.435876,2.988937 4.498892,5.175448c1.063048,2.186545 1.594539,4.64387 1.594539,7.37201zm-20.899984,-1.384119l14.692636,0c-0.113884,-2.447309 -0.787771,-4.332923 -2.021661,-5.656877c-1.233858,-1.323953 -2.856909,-1.985947 -4.869088,-1.985947c-1.936224,0 -3.606719,0.661993 -5.011419,1.985947c-1.404733,1.323953 -2.334899,3.209568 -2.790468,5.656877z"/>
      <polygon stroke="null" points="490.73675537109375,90.14671325683594 490.73675537109375,44.350006103515625 496.6024169921875,44.350006103515625 496.6024169921875,90.14671325683594 " fill-rule="nonzero" fill="#454ce1" id="路径"/>
      <path stroke="null" fill-rule="nonzero" fill="#454ce1" id="形状" d="m516.152162,58.191331c2.543671,0 4.916499,0.682026 7.118518,2.046079c2.201986,1.364086 3.9674,3.289834 5.296178,5.777276c1.32881,2.487408 1.993182,5.315847 1.993182,8.485315c0,3.169468 -0.664373,5.997907 -1.993182,8.485315c-1.328777,2.487442 -3.094192,4.413189 -5.296178,5.777276c-2.202018,1.364053 -4.574847,2.046079 -7.118518,2.046079c-2.581664,0 -4.983004,-0.682026 -7.203955,-2.046079c-2.220983,-1.364086 -3.995879,-3.289834 -5.324689,-5.777276c-1.328777,-2.487408 -1.993182,-5.315847 -1.993182,-8.485315c0,-3.169468 0.664405,-5.997907 1.993182,-8.485315c1.32881,-2.487442 3.103706,-4.413189 5.324689,-5.777276c2.220951,-1.364053 4.62229,-2.046079 7.203955,-2.046079zm-0.056958,27.02063c2.429787,0 4.422969,-0.962857 5.979547,-2.888604c1.55661,-1.925747 2.334899,-4.533521 2.334899,-7.823355c0,-3.289834 -0.787804,-5.897608 -2.363346,-7.823355c-1.575575,-1.925747 -3.559275,-2.888604 -5.9511,-2.888604c-2.391825,0 -4.375525,0.962857 -5.9511,2.888604c-1.575575,1.925747 -2.363346,4.533521 -2.363346,7.823355c0,3.289834 0.787771,5.897608 2.363346,7.823355c1.575575,1.925747 3.559275,2.888604 5.9511,2.888604z"/>
      <path stroke="null" fill-rule="nonzero" fill="#454ce1" id="形状" d="m563.948181,74.500001c0,3.370066 -0.607414,6.288787 -1.82234,8.756129c-1.214893,2.467375 -2.818915,4.342973 -4.81213,5.626794c-1.993182,1.283854 -4.128728,1.925747 -6.406669,1.925747c-1.898263,0 -3.673159,-0.431279 -5.324657,-1.293837c-1.651498,-0.862591 -3.027751,-2.176495 -4.12876,-3.941777l0,19.076943l-5.865663,0l0,-45.73651l5.182293,0c0.075923,2.086212 0.189839,3.791295 0.341685,5.115249c1.063048,-1.925747 2.458266,-3.380083 4.185718,-4.363006c1.72742,-0.982957 3.597204,-1.474402 5.609383,-1.474402c2.277941,0 4.413487,0.651943 6.406669,1.95583c1.993215,1.303887 3.597236,3.189501 4.81213,5.656877c1.214926,2.467375 1.82234,5.36603 1.82234,8.695963zm-6.093463,0c0,-3.329933 -0.730813,-5.947757 -2.192504,-7.853438c-1.461658,-1.905681 -3.3884,-2.858521 -5.780226,-2.858521c-2.315903,0 -4.299603,0.882624 -5.9511,2.647873c-1.651498,1.765282 -2.477263,4.453322 -2.477263,8.064086c0,3.650897 0.825765,6.338937 2.477263,8.064086c1.651498,1.725149 3.635198,2.587707 5.9511,2.587707c2.429787,0 4.366011,-0.932774 5.808705,-2.798355c1.442694,-1.865548 2.164025,-4.483372 2.164025,-7.853438z"/>
      <path stroke="null" fill-rule="nonzero" fill="#454ce1" id="形状" d="m594.431971,72.63442c0,0.922757 -0.094887,2.026046 -0.284726,3.3099l-20.786132,0c0.265762,3.129335 1.195929,5.486362 2.790468,7.071113c1.594572,1.584717 3.587754,2.377093 5.979579,2.377093c3.113156,0 5.3721,-1.364086 6.776833,-4.092226l4.38504,2.708073c-0.759325,2.166478 -2.202018,3.841478 -4.328082,5.025c-2.126063,1.183555 -4.498924,1.775299 -7.118518,1.775299c-2.695581,0 -5.144332,-0.631877 -7.346351,-1.895631c-2.201986,-1.263787 -3.957886,-3.139385 -5.267698,-5.626827c-1.309813,-2.487408 -1.964736,-5.456279 -1.964736,-8.906578c0,-3.370066 0.654923,-6.278737 1.964736,-8.726046c1.309813,-2.447309 3.05623,-4.30284 5.239219,-5.566628c2.183022,-1.263754 4.546368,-1.895631 7.090071,-1.895631c2.581664,0 4.840609,0.631877 6.776833,1.895631c1.936256,1.263787 3.435876,2.988937 4.498924,5.175448c1.063015,2.186545 1.594539,4.64387 1.594539,7.37201zm-20.899984,-1.384119l14.692636,0c-0.113884,-2.447309 -0.787771,-4.332923 -2.021661,-5.656877c-1.23389,-1.323953 -2.856909,-1.985947 -4.869088,-1.985947c-1.936224,0 -3.606719,0.661993 -5.011451,1.985947c-1.4047,1.323953 -2.334867,3.209568 -2.790436,5.656877z"/>
      <path stroke="null" fill-rule="nonzero" fill="#454ce1" id="路径" d="m616.999958,60.177244l-2.220983,4.874551c-0.873209,-0.842525 -1.974218,-1.263754 -3.302995,-1.263754c-2.012179,0 -3.663677,0.94279 -4.954493,2.828438c-1.290848,1.885614 -1.936256,4.573654 -1.936256,8.064053l0,15.466179l-5.865663,0l0,-31.233221l5.182293,0c0.075923,1.885614 0.189839,3.570631 0.341685,5.055083c1.670494,-3.851495 4.233162,-5.777242 7.688035,-5.777242c1.063015,0 2.050108,0.180531 2.961278,0.541594c0.91117,0.361096 1.613536,0.842525 2.107099,1.444319z"/>
      <path stroke="null" fill="#454ce1" id="路径" d="m377.648854,45.927383c11.557441,0 20.926586,9.901126 20.926586,22.114354c0,12.213262 -9.369145,22.114053 -20.926586,22.114053l-1.771272,0l0,-7.371708l1.771272,0.000368c7.704961,0 13.951047,-6.600538 13.951047,-14.742713c0,-8.142141 -6.246086,-14.742679 -13.951047,-14.742679l-1.771272,-0.000335l0,-7.37134l1.771272,0z"/>
      <path stroke="null" fill-rule="nonzero" fill="#1F69FF" id="路径备份-5" d="m372.07604,45.927718l0,7.37134c-0.084984,0 -0.168545,0.000737 -0.250681,0.002144l-0.24217,0.006532c-0.039644,0.001474 -0.078932,0.003115 -0.117897,0.004924l-0.229516,0.013299c-0.112687,0.007772 -0.222267,0.017319 -0.328804,0.028642l-0.208998,0.025091l-0.101489,0.014371l-0.196959,0.032495c-1.863311,0.338015 -2.622377,1.385292 -2.672603,3.578838l-0.002686,0.239893l0,3.796823c0,3.195096 -0.927384,5.528438 -2.782151,7.000059c1.826968,2.793263 2.753898,5.065133 2.780759,6.815608l0.001392,0.183613l0,3.796823l0.000615,0.116848c0.02411,2.236158 0.749713,3.31794 2.572312,3.682353l0.102363,0.01953l0.196959,0.032495l0.101489,0.014371l0.208998,0.025091l0.162072,0.015644l0.166732,0.012998l0.229516,0.013299l0.117897,0.004924l0.24217,0.006499l0.250681,0.002177l0,7.37134l-0.20204,-0.001172c-6.579486,-0.076849 -11.035497,-3.916552 -11.123944,-11.097779l-0.001359,-0.218621l0,-3.796823l-0.002136,-0.113799c-0.025858,-0.682629 -0.284144,-1.357822 -0.768192,-1.867223c-0.748321,-0.787518 -2.07315,-1.3065 -4.189958,-1.33196l-0.16437,-0.000971l0,-7.371373c2.212828,0 3.586816,-0.525213 4.354328,-1.332931c0.484048,-0.509401 0.742334,-1.184593 0.768192,-1.867223l0.002136,-0.113799l0,-3.796823c0,-7.321894 4.479377,-11.238781 11.125303,-11.3164l0.20204,-0.001172z"/>
     </g>
    </g>
   </g>
  </g>
 </g>
</svg>