<?xml version="1.0" standalone="no"?><!DOCTYPE svg PUBLIC "-//W3C//DTD SVG 1.1//EN" "http://www.w3.org/Graphics/SVG/1.1/DTD/svg11.dtd"><svg t="1709702759009" class="icon" viewBox="0 0 2755 1024" version="1.1" xmlns="http://www.w3.org/2000/svg" p-id="6037" xmlns:xlink="http://www.w3.org/1999/xlink" width="172.1875" height="64"><path d="M0 380.830476c0 210.334476 170.496 380.830476 380.830476 380.830476V0C170.496 0 0 170.496 0 380.830476z m888.58819 253.878857c0-210.310095-170.496-380.830476-380.830476-380.830476v761.660953c210.334476 0 380.830476-170.496 380.830476-380.830477zM2200.210286 61.68381c0 22.357333-19.772952 40.496762-44.178286 40.496761-24.429714 0-44.202667-18.139429-44.202667-40.496761 0-22.381714 19.772952-40.521143 44.202667-40.521143 24.380952 0 44.178286 18.139429 44.178286 40.521143z m-915.260953 158.573714c-8.752762-62.415238-66.486857-93.305905-134.119619-93.305905-65.316571 0-124.781714 32.060952-124.781714 96.207238 0 44.324571 25.648762 73.48419 67.047619 85.138286 15.798857 4.583619 33.670095 9.435429 53.394286 14.823619 7.94819 2.169905 16.213333 4.388571 24.746666 6.753524 22.747429 6.41219 35.57181 14.57981 35.57181 30.915047 0 20.406857-19.821714 30.305524-44.909714 30.305524-33.816381 0-58.88-16.335238-65.292191-47.225905l-81.066666 12.239238c12.239238 71.728762 65.316571 103.228952 144.627809 103.228953 71.704381 0 127.707429-36.742095 127.707429-102.058667 0-53.638095-32.085333-78.140952-99.132953-95.036952a1435.721143 1435.721143 0 0 1-53.638095-14.57981c-19.260952-5.851429-30.354286-12.848762-30.354286-28.574476 0-15.750095 21.577143-25.088 48.420572-23.917714 28.574476 1.170286 47.786667 17.505524 50.712381 39.643428l81.066666-14.555428z m109.104762 95.036952h221.013334c8.728381-109.616762-44.324571-188.342857-147.529143-188.342857-95.646476 0-159.207619 68.217905-159.207619 170.276571 0 93.866667 65.316571 162.108952 163.84 162.108953 58.904381 0 138.776381-60.318476 139.971047-113.712762H1532.830476c-12.239238 26.233905-36.156952 39.643429-65.29219 39.643429-42.569143 0-67.657143-26.233905-73.484191-69.973334z m73.484191-119.539809c44.885333 0 61.805714 20.992 67.047619 58.319238h-138.191238c7.558095-34.986667 28.574476-58.319238 71.119238-58.319238z m512.78019-66.169905c26.233905 0 51.590095 6.680381 71.41181 27.672381 27.40419 28.574476 30.305524 61.244952 30.305524 101.473524v191.853714h-80.457143v-186.026667c0-22.747429-4.096-36.742095-15.164953-48.981333-9.923048-11.068952-17.16419-15.433143-32.329143-15.433143-15.164952 0-23.503238 4.949333-33.401904 16.018286-12.263619 13.994667-14.57981 27.989333-14.57981 43.739428v190.659048h-80.457143v-186.002286c0-22.747429-4.096-36.742095-15.189333-48.981333-9.898667-11.068952-17.993143-15.433143-33.158095-15.433143-15.164952 0-22.674286 4.949333-32.572953 16.018286-12.239238 13.994667-14.57981 27.989333-14.579809 43.739428v190.659048h-79.896381V135.704381h69.973333v33.840762c22.186667-26.258286 48.323048-39.936 83.309714-39.936 26.258286 0 52.419048 6.680381 72.240762 27.672381 5.851429 6.436571 11.068952 12.848762 14.57981 19.260952 22.162286-30.329905 51.492571-46.933333 89.965714-46.933333z m131.510857 7.94819v313.051429h79.311238V137.508571h-79.311238zM1265.42019 572.294095V465.432381h79.896381v411.233524h-69.973333v-29.476572c-9.923048 22.113524-50.151619 38.204952-85.138286 38.204953-86.893714 0-145.212952-71.704381-145.212952-166.180572 0-96.207238 58.904381-166.180571 149.284571-166.180571 27.989333 0 51.321905 6.997333 71.143619 19.236571zM1128.984381 719.238095c0 53.077333 22.723048 95.622095 74.044952 95.622095 53.077333 0 72.313905-38.473143 72.313905-95.622095 0-57.148952-19.821714-95.622095-69.38819-95.622095-53.077333 0-76.970667 43.154286-76.970667 95.622095z m325.729524 22.162286h220.988952c8.777143-109.641143-44.30019-188.342857-147.504762-188.342857-95.646476 0-159.207619 68.217905-159.207619 170.25219 0 93.891048 65.29219 162.133333 163.84 162.133334 58.904381 0 137.020952-45.592381 139.946667-113.712762h-79.286857c-12.239238 26.233905-36.156952 39.643429-65.316572 39.643428-42.569143 0-67.632762-26.233905-73.459809-69.973333z m73.459809-119.53981c44.909714 0 61.805714 20.967619 67.047619 58.319239h-138.191238c7.582476-35.011048 28.574476-58.319238 71.143619-58.319239z m304.956953-68.803047c67.657143 0 125.391238 30.890667 134.144 93.281524l-81.066667 14.579809c-2.925714-22.162286-22.162286-38.473143-50.712381-39.643428-26.843429-1.170286-48.420571 8.167619-48.420571 23.893333 0 15.750095 11.068952 22.747429 30.329904 28.574476a1442.377143 1442.377143 0 0 0 53.638096 14.57981c67.047619 16.920381 99.132952 41.423238 99.132952 95.061333 0 65.316571-55.978667 102.034286-127.707429 102.034286-79.311238 0-132.388571-31.47581-144.603428-103.204572l81.042286-12.239238c6.41219 30.915048 31.50019 47.225905 65.316571 47.225905 25.063619 0 44.909714-9.898667 44.909714-30.305524 0-16.335238-12.848762-24.502857-35.59619-30.915048-8.533333-2.340571-16.774095-4.608-24.722286-6.753523-19.748571-5.36381-37.595429-10.24-53.394286-14.823619-41.398857-11.654095-67.047619-40.813714-67.047619-85.138286 0-64.146286 59.465143-96.207238 124.781715-96.207238z m166.107428 8.728381v314.904381h79.311238V561.785905H1999.238095z m343.28381 25.088v-25.088h69.38819v336.457143c0 15.774476-1.170286 29.184-4.656762 42.593523-15.164952 57.709714-80.457143 83.163429-149.869714 83.163429-53.638095 0-110.787048-26.721524-134.704762-67.535238l73.45981-35.596191c9.923048 18.67581 39.66781 28.501333 61.830095 28.501334 35.57181 0 75.824762-17.310476 74.630095-52.272762v-31.500191c-20.406857 12.824381-45.470476 19.821714-75.215238 19.821715-86.893714 0-145.212952-71.704381-145.212952-166.180572 0-96.207238 58.904381-166.180571 149.284571-166.180571 32.670476 0 68.144762 14.262857 81.066667 33.816381zM2196.138667 719.238095c0 53.077333 22.747429 95.622095 74.069333 95.622095 53.077333 0 72.313905-38.473143 72.313905-95.622095 0-57.148952-19.821714-95.622095-69.388191-95.622095-53.077333 0-76.970667 43.154286-76.970666 95.622095z m508.17219-132.388571c-30.329905-29.720381-68.242286-36.132571-105.545143-33.792-28.574476 1.731048-60.65981 12.239238-81.066666 36.717714a33.328762 33.328762 0 0 1-4.071619 4.681143v-32.670476h-69.973334v314.904381h79.872v-137.020953c0-21.601524 0.585143-46.08 3.510857-60.074666 3.486476-17.505524 11.654095-31.50019 23.332572-40.228572 10.48381-7.606857 22.723048-11.678476 37.302857-12.263619 21.577143-0.585143 38.497524 5.851429 49.566476 18.066286 16.335238 17.505524 20.992 50.151619 20.992 82.822095v148.699429h80.481524v-152.210286c0-48.981333 0-103.789714-34.401524-137.606095z" p-id="6038" fill="#a067f0"></path></svg>