<svg xmlns:xlink="http://www.w3.org/1999/xlink" xmlns="http://www.w3.org/2000/svg" width="360" height="156" viewBox="0 0 360 156" fill="none">
<path fill-rule="evenodd" clip-rule="evenodd" d="M51.3476 135.653C54.8106 132.19 54.8106 126.575 51.3476 123.112L41.849 113.614C39.2613 111.026 35.8646 109.74 32.4729 109.757C29.081 109.74 25.6838 111.026 23.0958 113.614L13.5973 123.112C10.1343 126.575 10.1343 132.19 13.5973 135.653C17.0603 139.116 22.6749 139.116 26.138 135.653L29.644 132.147C31.2061 130.585 33.7388 130.585 35.3009 132.147L38.8069 135.653C42.2699 139.116 47.8846 139.116 51.3476 135.653Z" fill="url(#paint0_linear_418_15)"/>
<path d="M54.1458 121.664C50.6827 118.201 50.6828 112.586 54.1458 109.123V109.123C57.6088 105.66 63.2234 105.66 66.6864 109.123L77.7523 120.189C81.2153 123.652 81.2153 129.267 77.7523 132.73V132.73C74.2893 136.193 68.6746 136.193 65.2116 132.73L54.1458 121.664Z" fill="url(#paint1_linear_418_15)"/>
<path d="M55.212 99.8676C55.212 104.765 51.2418 108.735 46.3444 108.735C41.447 108.735 37.4768 104.765 37.4768 99.8676C37.4768 94.9702 41.447 91 46.3444 91C51.2418 91 55.212 94.9702 55.212 99.8676Z" fill="url(#paint2_linear_418_15)"/>
<path d="M103.308 98.6667L104.041 99.8667C104.374 100.4 104.508 100.933 104.308 101.6L96.1073 132.133C95.7739 133.467 96.4406 134.4 97.8407 134.4H104.641C105.774 134.4 106.508 133.867 106.841 132.733L109.041 125.267C109.241 124.467 109.774 124.133 110.508 124.133H124.175C124.975 124.133 125.508 124.467 125.708 125.267L127.708 132.667C128.042 133.867 128.775 134.4 129.909 134.4H137.309C138.709 134.4 139.442 133.467 139.042 132.133L129.709 98.3333C129.375 97.1333 128.642 96.6667 127.508 96.6667H104.908C103.308 96.6667 102.574 97.5333 103.308 98.6667ZM120.242 104.2L123.508 116.267C123.775 117.133 123.308 117.733 122.375 117.733H112.708C111.775 117.733 111.308 117.067 111.575 116.2L115.108 104.2C115.308 103.4 115.841 103.067 116.575 103.067H118.708C119.508 103.067 120.041 103.4 120.242 104.2Z" fill="#03003D"/>
<path d="M147.046 98.6667L147.846 99.9333C148.179 100.533 148.312 100.933 148.312 101.533V132.4C148.312 133.667 149.046 134.4 150.312 134.4H158.913C160.179 134.4 160.913 133.667 160.913 132.4V98.6667C160.913 97.4 160.179 96.6667 158.913 96.6667H148.646C147.046 96.6667 146.312 97.5333 147.046 98.6667Z" fill="#03003D"/>
<path d="M169.923 132.267V134.6C169.923 135.867 170.656 136.6 171.923 136.6H223.658C224.925 136.6 225.658 135.867 225.658 134.6V132.267C225.658 131 224.925 130.267 223.658 130.267H205.457C204.59 130.267 204.124 129.8 204.124 128.933V101.2C204.124 100.333 204.59 99.8667 205.457 99.8667H222.391C223.658 99.8667 224.391 99.1333 224.391 97.8667V95.5333C224.391 94.2667 223.658 93.5333 222.391 93.5333H173.189C171.923 93.5333 171.189 94.2667 171.189 95.5333V97.8667C171.189 99.1333 171.923 99.8667 173.189 99.8667H190.123C190.99 99.8667 191.457 100.333 191.457 101.2V128.933C191.457 129.8 190.99 130.267 190.123 130.267H171.923C170.656 130.267 169.923 131 169.923 132.267Z" fill="#03003D"/>
<path d="M232.453 120.867V123.2C232.453 124.467 233.186 125.2 234.453 125.2H286.188C287.455 125.2 288.188 124.467 288.188 123.2V120.867C288.188 119.6 287.455 118.867 286.188 118.867H283.255C282.388 118.867 281.922 118.4 281.922 117.533V94.2667C281.922 93 281.188 92.2667 279.921 92.2667H239.187C237.587 92.2667 236.987 93.3333 237.853 94.6667L238.387 95.5333C238.72 96.1333 238.853 96.5333 238.853 97.1333V117.533C238.853 118.4 238.387 118.867 237.52 118.867H234.453C233.186 118.867 232.453 119.6 232.453 120.867ZM252.387 127.133H242.853C241.787 127.133 241.053 127.6 240.453 128.467L235.253 136.6C234.386 137.933 234.986 139 236.586 139H246.12C247.187 139 247.92 138.533 248.52 137.667L253.72 129.533C254.587 128.2 253.987 127.133 252.387 127.133ZM277.788 127.133H268.254C266.654 127.133 266.054 128.2 266.921 129.533L272.188 137.667C272.788 138.533 273.521 139 274.588 139H284.055C285.655 139 286.255 137.933 285.388 136.6L280.188 128.467C279.588 127.6 278.855 127.133 277.788 127.133ZM252.854 98.6H267.921C268.788 98.6 269.254 99 269.254 99.7333C269.254 100.467 268.788 100.933 267.921 100.933H252.854C251.987 100.933 251.52 100.467 251.52 99.7333C251.52 99 251.987 98.6 252.854 98.6ZM252.854 116.8H267.921C268.788 116.8 269.254 117.2 269.254 117.8C269.254 118.467 268.788 118.867 267.921 118.867H252.854C251.987 118.867 251.52 118.467 251.52 117.8C251.52 117.133 251.987 116.8 252.854 116.8ZM252.854 110.8H267.921C268.788 110.8 269.254 111.2 269.254 111.8C269.254 112.467 268.788 112.867 267.921 112.867H252.854C251.987 112.867 251.52 112.467 251.52 111.8C251.52 111.133 251.987 110.8 252.854 110.8ZM252.854 104.867H267.921C268.788 104.867 269.254 105.267 269.254 105.867C269.254 106.467 268.788 106.867 267.921 106.867H252.854C251.987 106.867 251.52 106.467 251.52 105.867C251.52 105.267 251.987 104.867 252.854 104.867Z" fill="#03003D"/>
<path d="M306.984 91.4667L295.784 93.8C294.65 94.0667 293.983 94.8 293.983 96V99.5333C293.983 100.933 294.85 101.6 296.184 101.333L297.584 101.067C298.45 100.867 299.05 101.267 299.05 102.2V118.133C299.05 119.4 299.784 120.133 301.05 120.133H307.117C307.851 120.133 308.384 120 308.717 119.733C309.317 119.267 309.451 118.867 310.117 118.867H312.917C313.784 118.867 314.251 119.333 314.251 120.133C314.251 121 313.651 121.4 312.851 121.4H295.984C294.717 121.4 293.983 122.133 293.983 123.4V125.733C293.983 127 294.717 127.733 295.984 127.733H300.384C301.584 127.733 301.917 128.6 301.117 129.4L295.117 135.4C293.85 136.667 294.383 137.867 296.117 137.867H303.917C304.917 137.867 305.651 137.6 306.384 136.867L312.584 130.6C313.384 129.733 314.184 130.067 314.184 131.267L314.251 137C314.251 138.333 314.984 139 316.251 139H324.918C326.185 139 326.918 138.267 326.918 137V131.467C326.918 130.267 327.785 130 328.585 130.8L334.585 136.867C335.318 137.6 336.052 137.867 337.052 137.867H344.852C346.585 137.867 347.119 136.667 345.852 135.4L339.852 129.4C339.052 128.6 339.385 127.733 340.585 127.733H345.185C346.452 127.733 347.185 127 347.185 125.733V123.4C347.185 122.133 346.452 121.4 345.185 121.4H328.251C327.385 121.4 326.851 121 326.918 120.133C326.918 119.267 327.451 118.867 328.251 118.867H342.652C343.919 118.867 344.652 118.133 344.652 116.867V115.8C344.652 114.533 343.919 113.8 342.652 113.8H332.052C331.185 113.8 330.718 113.533 330.718 113.133C330.718 112.733 331.185 112.533 332.052 112.533H342.652C343.919 112.533 344.652 111.8 344.652 110.533V109.467C344.652 108.2 343.919 107.467 342.652 107.467H332.052C331.185 107.467 330.718 107.2 330.718 106.8C330.718 106.333 331.185 106.2 332.052 106.2H342.652C343.919 106.2 344.652 105.467 344.652 104.2V103.133C344.652 101.867 343.919 101.133 342.652 101.133H332.052C331.185 101.133 330.718 100.867 330.718 100.467C330.718 100.067 331.185 99.8667 332.052 99.8667H342.652C343.919 99.8667 344.652 99.1333 344.652 97.8667V96.8C344.652 95.5333 343.919 94.8 342.652 94.8H332.052C331.185 94.8 330.718 94.3333 330.718 93.4667V92.8667C330.718 91.6667 329.985 91 328.718 91H321.518C319.718 91 319.251 92.2 320.518 93.4667H320.584C320.584 93.4667 320.584 93.7333 320.584 94.1333C320.584 94.6 320.051 94.8 319.251 94.8H310.517C309.651 94.8 309.184 94.3333 309.184 93.4667V92.8667C309.184 91.7333 308.317 91.2 306.984 91.4667ZM310.451 112.533H319.251C320.118 112.533 320.584 112.8 320.584 113.133C320.584 113.533 320.118 113.8 319.251 113.8H310.517C309.651 113.8 309.117 113.6 309.184 113.133C309.184 112.667 309.651 112.533 310.451 112.533ZM310.517 106.2H319.251C320.051 106.2 320.518 106.4 320.584 106.8C320.584 107.267 320.051 107.467 319.184 107.467H310.517C309.651 107.467 309.184 107.2 309.184 106.8C309.184 106.333 309.651 106.2 310.517 106.2ZM310.517 99.8667H319.251C320.051 99.8667 320.518 100.067 320.584 100.467C320.584 100.933 320.051 101.133 319.184 101.133H310.517C309.651 101.133 309.184 100.867 309.184 100.467C309.184 100.067 309.651 99.8667 310.517 99.8667Z" fill="#03003D"/>
<rect x="91" y="1" width="178" height="58" rx="29" fill="#F7F8FA" stroke="url(#paint3_linear_418_15)" stroke-width="2"/>
<g filter="url(#filter0_d_418_15)">
<rect x="100" y="10" width="160" height="40" rx="20" fill="#FEFEFE"/>
</g>
<path d="M126 38L126.144 34.232H122.136L120.96 38H116.376L122.544 20.72H130.464L130.56 38H126ZM125.016 24.92L123.12 31.016H126.264L126.528 24.92H125.016ZM140.199 20.72L137.175 38H132.831L135.879 20.72H140.199ZM148.269 32.984H141.093L141.621 29.96H148.797L148.269 32.984ZM160.464 20.72C162.288 20.72 163.584 21.12 164.352 21.92C164.928 22.528 165.216 23.296 165.216 24.224C165.216 24.544 165.184 24.88 165.12 25.232L164.904 26.384C164.728 27.296 164.384 28.008 163.872 28.52C163.376 29.032 162.936 29.288 162.552 29.288L162.528 29.48C162.976 29.48 163.432 29.728 163.896 30.224C164.36 30.72 164.592 31.304 164.592 31.976C164.592 32.248 164.56 32.536 164.496 32.84L164.352 33.584C164.096 34.96 163.48 36.04 162.504 36.824C161.544 37.608 160.2 38 158.472 38H150.456L153.504 20.72H160.464ZM158.304 30.944H156.024L155.448 34.256H157.728C157.76 34.256 157.792 34.256 157.824 34.256C158.56 34.256 159.144 34.088 159.576 33.752C160.008 33.4 160.224 32.976 160.224 32.48C160.224 31.456 159.584 30.944 158.304 30.944ZM158.952 24.464H157.152L156.528 28.04H158.304C159.84 28.04 160.608 27.368 160.608 26.024C160.608 25.56 160.464 25.184 160.176 24.896C159.904 24.608 159.496 24.464 158.952 24.464ZM175.565 20.552C179.421 20.552 181.349 22.128 181.349 25.28C181.349 25.808 181.293 26.376 181.181 26.984L180.341 31.784C179.957 34.008 179.125 35.656 177.845 36.728C176.565 37.8 174.765 38.336 172.445 38.336C170.125 38.336 168.509 37.8 167.597 36.728C166.973 35.992 166.661 34.976 166.661 33.68C166.661 33.104 166.725 32.472 166.853 31.784L167.693 26.984C168.445 22.696 171.069 20.552 175.565 20.552ZM173.093 34.616C173.893 34.616 174.533 34.408 175.013 33.992C175.493 33.576 175.829 32.808 176.021 31.688L176.837 27.08C176.885 26.76 176.909 26.472 176.909 26.216C176.909 24.92 176.253 24.272 174.941 24.272C173.293 24.304 172.309 25.24 171.989 27.08L171.173 31.688C171.109 32.088 171.077 32.504 171.077 32.936C171.077 34.056 171.749 34.616 173.093 34.616ZM199.162 24.464H193.258L190.882 38H186.538L188.914 24.464H182.986L183.658 20.72H199.834L199.162 24.464ZM216.364 38.336C214.076 38.336 212.492 37.84 211.612 36.848C211.004 36.144 210.7 35.16 210.7 33.896C210.7 33.352 210.756 32.768 210.868 32.144L211.852 26.624C212.572 22.576 215.172 20.552 219.652 20.552C221.508 20.552 222.916 20.952 223.876 21.752C224.836 22.536 225.316 23.616 225.316 24.992C225.316 25.632 225.22 26.272 225.028 26.912C224.852 27.536 224.676 28 224.5 28.304L224.236 28.784H219.988C220.516 28.176 220.78 27.312 220.78 26.192C220.78 25.6 220.628 25.136 220.324 24.8C220.02 24.448 219.572 24.272 218.98 24.272C217.364 24.272 216.404 25.168 216.1 26.96L215.26 31.808C215.18 32.224 215.14 32.632 215.14 33.032C215.14 34.088 215.772 34.616 217.036 34.616C218.556 34.616 219.468 33.76 219.772 32.048H224.092L223.972 32.744C223.332 36.472 220.796 38.336 216.364 38.336ZM242.199 20.72L239.175 38H234.831L231.807 28.544L230.175 38H225.831L228.879 20.72H233.343L236.319 29.552L237.879 20.72H242.199Z" fill="#595866"/>
<path d="M202 30C202 30 202.901 32.6579 204.121 33.8787C205.342 35.0995 208 36 208 36C208 36 205.342 36.9005 204.121 38.1213C202.901 39.3421 202 42 202 42C202 42 201.099 39.3421 199.879 38.1213C198.658 36.9005 196 36 196 36C196 36 198.658 35.0995 199.879 33.8787C201.099 32.6579 202 30 202 30Z" fill="#595866"/>
<defs>
<filter id="filter0_d_418_15" x="98" y="10" width="164" height="45" filterUnits="userSpaceOnUse" color-interpolation-filters="sRGB">
<feFlood flood-opacity="0" result="BackgroundImageFix"/>
<feColorMatrix in="SourceAlpha" type="matrix" values="0 0 0 0 0 0 0 0 0 0 0 0 0 0 0 0 0 0 127 0" result="hardAlpha"/>
<feOffset dy="3"/>
<feGaussianBlur stdDeviation="1"/>
<feComposite in2="hardAlpha" operator="out"/>
<feColorMatrix type="matrix" values="0 0 0 0 0.913725 0 0 0 0 0.921569 0 0 0 0 0.941176 0 0 0 1 0"/>
<feBlend mode="normal" in2="BackgroundImageFix" result="effect1_dropShadow_418_15"/>
<feBlend mode="normal" in="SourceGraphic" in2="effect1_dropShadow_418_15" result="shape"/>
</filter>
<linearGradient id="paint0_linear_418_15" x1="53.9448" y1="138.25" x2="27.6912" y2="98.6819" gradientUnits="userSpaceOnUse">
<stop stop-color="#EE9AE5"/>
<stop offset="1" stop-color="#5961F9"/>
</linearGradient>
<linearGradient id="paint1_linear_418_15" x1="47.8754" y1="115.393" x2="77.8279" y2="106.224" gradientUnits="userSpaceOnUse">
<stop stop-color="#EE9AE5"/>
<stop offset="1" stop-color="#5961F9"/>
</linearGradient>
<linearGradient id="paint2_linear_418_15" x1="37.4768" y1="91" x2="55.212" y2="108.735" gradientUnits="userSpaceOnUse">
<stop stop-color="#EE9AE5"/>
<stop offset="1" stop-color="#5961F9"/>
</linearGradient>
<linearGradient id="paint3_linear_418_15" x1="90" y1="0" x2="274.172" y2="41.4724" gradientUnits="userSpaceOnUse">
<stop stop-color="#EE9AE5" stop-opacity="0.15"/>
<stop offset="1" stop-color="#5961F9" stop-opacity="0.15"/>
</linearGradient>
</defs>
</svg>