<svg xmlns:xlink="http://www.w3.org/1999/xlink" xmlns="http://www.w3.org/2000/svg" version="1.2" baseProfile="tiny" width="100" height="150" viewBox="0 0 400 600" preserveAspectRatio="xMinYMin meet"><g transform="scale(0.96 1) translate(8.434056361516324 0)"><path fill="#A67358" stroke="#000000" stroke-width="6.12245px" d="M20 600s-5-60 40-70c15 0 45-15 90-35l50-195 50 195c45 20 75 35 90 35 45 10 45 70 45 70" class="body"></path></g><g transform="scale(0.96 1) translate(8.333333333333341 0)"><g stroke="#000000"><path fill="#89BFD3" stroke-width="6.12245px" d="M120 505c0 35 50 25 80 45 30-20 80-10 80-45 30-25 90-15 100-5s10.07 20.41 15 50c5 30 5 20 5 60H0c0-40 0-29.59 5-59.59 4.93-29.59 5-39.38 15-50.41 9.5-10.48 70-20 100 5Z" class="footballPrimary" stroke="#000000"></path><path fill="#7A1319" stroke-width="2.04082px" d="M120 505c0 35 50 25 80 45 30-20 80-10 80-45l15-10c5 60-55 45-95 75-40-30-100-15-95-75z" class="collarSecondary" stroke="#000000"></path><g stroke-width="2.04082px" stroke="#000000"><path fill="#7A1319" d="m55 490-25 5-10 5v80h35zm290 0 25 5 10 5v80h-35z" class="vStripes1" stroke="#000000" stroke-width="2.04082px"></path><path fill="#07364F" d="m30 495 15-3.14V580H30zm340 0-15-3.14V580h15z" class="vStripes2" stroke="#000000" stroke-width="2.04082px"></path></g><path fill="none" stroke-width="6.12245px" d="M120 505c0 35 50 25 80 45 30-20 80-10 80-45 30-25 90-15 100-5s10.07 20.41 15 50c5 30 5 20 5 60H0c0-40 0-30 5-60 4.93-29.59 5-38.97 15-50 9.5-10.48 70-20 100 5Z" class="footballStroke" stroke="#000000"></path><path fill="none" stroke-width="2.04082px" d="M19.5 570s72.5-2.11 81.5-20m280 20s-71-2.11-80-20" class="shp3" stroke="#000000"></path></g></g><g transform="translate(32 290.5999984741211) scale(1.1 1.1) translate(-2.0909090909090926 -3.1272728659889943) translate(1.3400000000000007 -3)"><path fill="#A67358" stroke="#000000" stroke-width="5.45455px" d="M43 13S23 3 13 3 3 23 3 33s3 20 13 30 27-10 27-10z"></path></g><g transform="translate(322 290.5999984741211) scale(-1.1 1.1) translate(-43.90909090909091 -3.1272728659889943) translate(1.3400000000000007 -3)"><path fill="#A67358" stroke="#000000" stroke-width="5.45455px" d="M43 13S23 3 13 3 3 23 3 33s3 20 13 30 27-10 27-10z"></path></g><g transform="scale(0.9720000000000001 1) translate(5.761316872427965 0)"><path fill="#A67358" stroke="#000000" stroke-width="6.08519px" d="M200 100c100 0 150 60 150 200-20 180-10 140-90 180-30 10-40 20-60 20s-30-10-60-20c-80-40-70 0-90-180 0-140 50-200 150-200Z" class="head"></path><path fill="#000000" d="M60 300H50c0-140 50-200 150-200s150 60 150 200h-10v-10c0-5-10-20-15-25s-5-55-15-65c-40-40-60 0-110 0s-70-40-110 0c-10 10-10 60-15 65s-15 20-15 25z" class="headShave" fill-opacity="0"></path><path fill="#000000" d="M200 410c30 0 50 10 50 10 30 0 90-15 90-120h10c-20 180.69-10 140-90 180-30 10-40 20-60 20s-30-10-60-20c-80-40-70 0-90-180h10c0 105 60 120 90 120 0 0 20-10 50-10" class="faceShave" fill-opacity="0"></path></g><g><path fill="none" stroke="#000000" stroke-width="2px" d="M220 270s-10 0-10-20m-30 20s10 0 10-20" class="eyeline1"></path></g><g transform="translate(140.5 420.5) scale(1.94 1.94) translate(-4.603092783505154 -7.025773195876289)"><path fill="none" stroke="#000000" stroke-width="1.03093px" d="M17 2 2 12l5 15" class="shp0"></path></g><g transform="translate(240.5 420.5) scale(-1.94 1.94) translate(-14.396907216494846 -7.025773195876289)"><path fill="none" stroke="#000000" stroke-width="1.03093px" d="M17 2 2 12l5 15" class="shp0"></path></g><g transform="scale(0.9720000000000001 1) translate(5.761316872427965 0)"><path stroke="#000000" stroke-width="3.0426px" d="m205.17 408-.17 12m10-15v16.28m10-13.26V420m10-10v11.28M194.83 408l.17 12m-10-15v16.28m-10-13.26V420m-10-10v11.53m0 48.47v25m10-30v35m10-40v40m10-40v40m10 0v-40m10 0v40m10-35v35m10-30v25"></path></g><g transform="translate(102.8498306274414 285.1549987792969) rotate(11 37.150169372558594 24.845001220703125)"><path d="M5.55 28.46S17.08 11.77 40 11.77s28.58 16.69 28.58 16.69-5.73 11.46-28.65 11.46S5.55 28.46 5.55 28.46" style="" fill="#F5F3EE"></path><path d="M5.55 28.46C2.68 25.6 17.08 9.77 40 9.77S71.44 25.6 68.58 28.46C65.71 31.33 62.92 16.27 40 16.27S8.41 31.33 5.55 28.46" style="fill:#000"></path><path d="M39.93 33.04c-6.34 0-11.46-5.12-11.46-11.46 0-6.33 5.12-11.46 11.46-11.46s11.46 5.13 11.46 11.46c0 6.34-5.12 11.46-11.46 11.46" style="fill:#000"></path></g><g transform="translate(222.8498306274414 285.1549987792969) rotate(-11 37.150169372558594 24.845001220703125) scale(-1 1) translate(-74.30033874511719 0)"><path d="M5.55 28.46S17.08 11.77 40 11.77s28.58 16.69 28.58 16.69-5.73 11.46-28.65 11.46S5.55 28.46 5.55 28.46" style="" fill="#F5F3EE"></path><path d="M5.55 28.46C2.68 25.6 17.08 9.77 40 9.77S71.44 25.6 68.58 28.46C65.71 31.33 62.92 16.27 40 16.27S8.41 31.33 5.55 28.46" style="fill:#000"></path><path d="M39.93 33.04c-6.34 0-11.46-5.12-11.46-11.46 0-6.33 5.12-11.46 11.46-11.46s11.46 5.13 11.46 11.46c0 6.34-5.12 11.46-11.46 11.46" style="fill:#000"></path></g><g transform="translate(105.99999749660492 258.74079990386963) rotate(14 34.00000250339508 11.259200096130371)"><path fill="#1C1008" stroke="#000000" d="M65 16c3-3 0-10 0-10S45 1 35 1 3 11 3 11s-3 7 0 10 22-8 32-8 27 6 30 3Z"></path></g><g transform="translate(225.99999749660492 258.74079990386963) rotate(-14 34.00000250339508 11.259200096130371) scale(-1 1) translate(-68.00000500679016 0)"><path fill="#1C1008" stroke="#000000" d="M65 16c3-3 0-10 0-10S45 1 35 1 3 11 3 11s-3 7 0 10 22-8 32-8 27 6 30 3Z"></path></g><g transform="translate(169 424.5) scale(-1 1) translate(-62 0)"><path d="M11 8S4.33 28 31 28 51 8 51 8 41 4.37 31 4.37 11 8 11 8Zm50-5L51 8M1 3l10 5" style="" stroke="#000000" fill="#FFFFFF" stroke-width="5px"></path></g><g transform="translate(150.27785873413086 317.5) scale(-0.68 0.68) translate(-122.84293724508846 24.70588235294117)"><path fill="#A67358" stroke="#000000" stroke-width="7.35294px" d="M36.03 47c-19.25.25-26.57 32.37-4.37 27.13 9-2.13 8.25 4.12 18.12 4.37 9.5.24 5.75-6.12 16.38-3.25 22.01 5.96 18.75-28-.21-28.02M50 55.6S51.25 45 51.25 35 50 5 50 5" class="nose"></path><path d="M40 95h20v5H40z" style="" fill="none"></path></g><g transform="scale(-1 1) translate(-400 0) scale(0.9720000000000001 1) translate(5.761316872427965 0)"><defs><linearGradient id="a" x1="200" x2="200" y1="100" y2="310" gradientUnits="userSpaceOnUse"><stop offset="0" stop-color="rgba(0,0,0,.25)"></stop><stop offset="1" stop-color="rgba(0,0,0,0)"></stop></linearGradient><linearGradient id="a" x1="200" x2="200" y1="100" y2="310" gradientUnits="userSpaceOnUse"><stop offset="0" stop-color="rgba(0,0,0,.25)"></stop><stop offset="1" stop-color="rgba(0,0,0,0)"></stop></linearGradient></defs><g style="display:inline"><path d="M60 310H50v-10c0-140 50-200 150-200s150 60 150 200v10h-10v-20c0-5-10-20-15-25s-5-55-15-65c-40-40-56.429-38.095-106.429-38.095S130 160 90 200c-10 10-10 60-15 65s-15 20-15 25z" class="short_fade" style="display: inline; opacity: 1; stroke: none; stroke-width: 1; stroke-miterlimit: 4; stroke-dasharray: none;" fill="url(&quot;#a&quot;)"></path></g><path fill="#1C1008" stroke="#000000" stroke-width="4.05781px" d="M186.574 63.308c-1.38.914-3.048 2.224-3.706 2.902-.658.697-2.644 2.11-4.428 3.137-1.795 1.036-4.004 2.996-4.928 4.352-.913 1.347-2.761 3.024-4.12 3.74-1.36.716-4.378 3.134-6.98 4.84-2.633 1.695-3.698 3.69-4.77 5.047-1.083 1.338-1.985 2.085-3.313 2.952-1.316.848-2.349 2.437-2.349 2.437-.547.603-3.464.794-5.216 1.906s-2.509 3.225-3.475 3.668c-.956.443-2.931 1.762-4.408 2.92-1.476 1.15-2.994 2.139-3.366 2.205-.361.066-1.827 1.074-3.25 2.232-1.423 1.14-2.75 2.101-2.93 2.13-.192.028-2.04 1.271-4.121 2.74 1.206.294-4.29 2.363-5.437 3.465-1.147 1.093-3.027 2.11-3.61 3.166-1.02 1.79-2.04 1.624-5.566 1.972-3.165.358-2.247 2.16-4.87 3.988-2.103 1.46-3.654 2.458-4.302 3.89-.52 1.159-2.102 4.032-3.515 6.378-2.188 3.664-1.961 5.05-8.206 10.202-3.94 3.231-2.727 4.186-4.691 5.76-2.56 2.043-3.919 3.617-4.832 5.586-.69 1.507-1.53 5.237-2.4 7.385s-1.688 4.296-1.837 4.786c-.138.49-1.71 2.091-3.473 3.56-2.57 2.186-3.207 3.072-3.59 4.975-.244 1.272-.456 2.694-.477 3.165-.01.462-.212 2.012-1.327 3.077-13.917 26.93.055 20.434 20.174 19.793 6.615-2.296 23.167-11.049 33.226-13.355 24.884-5.704 49.903-4.276 77.7-4.133 25.588.131 50.833-.518 75.14 4.693 13.99 2.998 30.483 11.738 39.346 13.955 20.81.15 27.744 1.091 26.427-2.908-.116-1.442-1.2-5.16-1.805-7.91-.606-2.678-1.04-2.932-2.061-6.347-.209-.699-1.487-1.979-2.57-2.95-1.104-.97-2.028-2.175-2.06-2.665-.021-.49-.266-1.978-.542-3.307-.425-2.072-1.476-2.677-4.577-5.108-2.05-1.582-.9-5.269-1.007-5.768-.116-.518-.743-1.554-1.423-2.317s-1.773-2.798-2.474-4.522c-.828-2.11-2.028-3.825-3.558-5.087-1.295-1.093-2.793-3.062-3.44-4.541-.616-1.45-.945-3.772-1.964-4.61s.385-.414-.794-.876c-1.179-.48-2.548-1.61-3.069-2.524-.51-.924-1.975-2.421-3.25-3.335l-1.23-2.44c-.562-.518-1.529-1.93-2.155-3.137-.616-1.215-2.889-3.759-5.034-5.68-2.156-1.941-2.69-5.195-4.846-7.353-2.156-2.185-4.567-4.239-5.342-4.53-.796-.293-3.037-2.215-5.002-4.316-2.368-2.58-1.744-4.223-4.899-5.966-2.559-1.432-5.84-3.015-7.295-3.495-1.466-.48-3.122-1.97-4.587-2.593-1.466-.612-3.696-1.906-4.78-3.253-1.072-1.357-2.888-2.2-3.303-2.228-.424-.028-1.943-1.912-3.377-4.22-1.423-2.327-3.387-4.918-4.386-5.728-.998-.82-3.525-1.535-5.67-1.592-3.824-.066-3.93-.132-7.084-4.889-2.517-3.957-3.462-4.89-4.906-4.72-1.423.17-2.273-.669-4.301-4.333-2.04-3.834-2.804-4.616-4.599-4.616-1.486.019-2.59.866-3.578 2.703-1.434 2.591-1.455 2.6-2.21.443-.424-1.196-2.102-3.269-3.738-4.578l-3.526-2.067c-3.753 1.148-3.364 2.987-4.97 4.494-4.587-3.458-5.267-3.162-7.667-2.23-1.678.641-3.918.886-4.991.528-1.306-.405-2.772-.066-4.45 1.055z"></path></g></svg>