<?xml version="1.0" standalone="no"?><!DOCTYPE svg PUBLIC "-//W3C//DTD SVG 1.1//EN" "http://www.w3.org/Graphics/SVG/1.1/DTD/svg11.dtd"><svg t="1704803369823" class="icon" viewBox="0 0 1024 1024" version="1.1" xmlns="http://www.w3.org/2000/svg" p-id="4087" xmlns:xlink="http://www.w3.org/1999/xlink" width="64" height="64"><path d="M236.9 676.2H261c-13.5 0-6.2 3-28 3.8H207.6h1.3c21.8-0.8 14.5-3.8 28-3.8zM328.4 673.5h24.1c-2.7 0-5.6 0.5-8.7 1.9-10.8 4.9-6.1-0.7-30.7 6.5-5.4 1.6-10.3 2.2-14.8 2.2h-24.1c4.5 0 9.4-0.6 14.8-2.2 24.6-7.2 19.9-1.6 30.7-6.5 3.1-1.4 5.9-1.9 8.7-1.9z" fill="#008743" p-id="4088"></path><path d="M257.6 271.4c9.6 0 17 11.2 27.8 16.1 6.2 2.7 10.1 3.1 13.3 3.1h3.1c3.2 0 6 0.5 10.4 4.4 11.4 10.1 8 14.7 14.2 24.4 6.2 9.7 12.2 5.6 21.5 32.2 13.1 37.7 1.1 43.8 3.3 48.6 2.2 4.8 16.8-5.7 26.7 38 7.7 34-8.8 64.6-7.7 87.1 1.1 22.2 17.3 21.3 23.5 56 3.1 13.3-0.6 57.2-23.5 82.2-9.3 10.2-16.5 12.7-23 12.7-3.3 0-6.4-0.7-9.5-1.3-3.1-0.7-6.1-1.3-9.4-1.3-2.7 0-5.6 0.5-8.7 1.9-10.8 4.9-6.1-0.7-30.7 6.5-5.4 1.6-10.3 2.2-14.8 2.2-16 0-26.8-7.8-37.3-7.8-13.5 0-6.2 3-28 3.8h-1.3c-21.2 0-38.7-19.1-49.1-46.8-10.6-28.2-0.4-55.4 2.4-73.3 2.5-15.9-15.5-44.4-9.8-92.8 5.7-48.4 44.9-49.1 46-54 1.1-4.8 0-25 0-33.1 0-8.1 5.6-32.2 11.2-41.1 5.6-8.9 15.6-7 21.8-16.6 6.2-9.7-9.7-33.3 20.9-49.2 2.4-1.3 4.6-1.9 6.7-1.9z" fill="#00AA5D" p-id="4089"></path><path d="M417.8 581.2c-6.2-34.7-22.4-33.7-23.5-56-1.1-22.5 15.4-53.1 7.7-87.1-9.9-43.6-24.4-33.1-26.7-38-2.2-4.8 9.8-10.9-3.3-48.6-9.2-26.6-15.3-22.6-21.5-32.2-6.2-9.7-2.8-14.3-14.2-24.4-4.5-4-7.3-4.4-10.4-4.4h-4.8c-2.9-0.2-6.5-0.8-11.6-3.1-10.8-4.9-18.2-16.1-27.8-16.1h-24.1c9.6 0 17 11.2 27.8 16.1 6.2 2.7 10.1 3.1 13.3 3.1h4.5c2.6 0.2 5.2 1 9 4.4 11.4 10.1 8 14.7 14.2 24.4 6.2 9.7 12.2 5.6 21.5 32.2 13.1 37.7 1.1 43.8 3.3 48.6 2.2 4.8 16.8-5.7 26.7 38 7.7 34-8.8 64.6-7.7 87.1 1.1 22.2 17.3 21.3 23.5 56 3.1 13.3-0.6 57.2-23.5 82.2-9.3 10.2-16.5 12.7-23 12.7h24.1c6.4 0 13.6-2.6 23-12.7 22.9-25 26.6-68.9 23.5-82.2z" fill="#008743" p-id="4090"></path><path d="M220.2 377.8c1.7 0.2 5.3 1.1 5.1 7.3-0.1 3.6-1.6 7.1-4.4 9.4-2.7 2.4-2.7-3.6-3-6.9-0.4-5.2 2.3-7.5 2.3-9.8z m32.9-34.2c1.7 0 5.4 0.6 5.8 6.8 0.3 3.6-1 7.2-3.5 9.8-2.5 2.6-3-3.4-3.6-6.6-0.9-5.1 1.6-7.8 1.3-10z m18.5 18c1.7-0.2 5.4-0.2 6.7 5.9 0.8 3.5 0 7.2-2.1 10.2-2.1 2.9-3.4-2.9-4.5-6.1-1.6-4.9 0.5-7.8-0.1-10z m25.1-32.3c1.7 0.2 5.3 1 5.2 7.3 0 3.6-1.6 7.1-4.4 9.5-2.7 2.4-2.7-3.6-3-6.9-0.4-5.3 2.3-7.7 2.2-9.9zM313 346c1.7 0.2 5.3 1 5.2 7.3 0 3.6-1.6 7.1-4.4 9.5-2.7 2.4-2.7-3.6-3-6.9-0.4-5.3 2.3-7.7 2.2-9.9z m11 29.7c1.7-0.1 5.4 0.1 6.3 6.3 0.6 3.6-0.4 7.2-2.7 10.1-2.3 2.8-3.2-3.1-4.1-6.3-1.2-5.1 1-7.9 0.5-10.1z m-20.1 8.1c1.5-0.8 5-2.1 8.3 3.2 2 3.1 2.5 6.8 1.6 10.3-1 3.5-4.2-1.5-6.3-4.1-3.2-4.1-2.3-7.6-3.6-9.4z m32.6 8.7c1.4-0.6 4.4-1.3 6.8 3.4 1.4 2.7 1.6 5.9 0.5 8.8-1.1 2.9-3.4-1.6-5-4-2.4-3.7-1.3-6.6-2.3-8.2zM256.2 378c1.4-0.6 4.4-1.3 6.8 3.4 1.4 2.7 1.6 5.9 0.5 8.8-1.1 2.9-3.4-1.6-5-4-2.4-3.7-1.3-6.5-2.3-8.2z m-51.9 4.4c-0.8-1-2.2-3.2 1.1-6.3 1.9-1.8 4.4-2.7 7-2.6 2.6 0.2-0.5 3.2-2 5-2.5 2.9-5.1 2.8-6.1 3.9z m11-23.6c-0.8-1-2.2-3.2 1.1-6.3 1.9-1.8 4.4-2.7 7-2.6 2.6 0.2-0.5 3.2-2 5-2.4 2.9-5 2.8-6.1 3.9z m25.6-3.6c-1.2 0.2-3.9 0.1-4.8-4.2-0.6-2.5 0-5.2 1.5-7.3 1.5-2.1 2.5 2.1 3.2 4.4 1.2 3.5-0.3 5.6 0.1 7.1z m1.4 19.4c-1.2 0.5-3.7 1.2-5.7-2.8-1.2-2.3-1.4-5-0.5-7.5 0.9-2.4 2.9 1.4 4.2 3.4 2.1 3.1 1.2 5.5 2 6.9z m14-39.6c-1.2 0.2-3.9 0.3-5-4.1-0.7-2.5-0.2-5.2 1.2-7.4s2.5 2 3.4 4.2c1.4 3.6-0.1 5.7 0.4 7.3z m27.6-6.8c0.9 0.8 2.7 2.8 0 6.4-1.5 2.1-3.9 3.5-6.5 3.7-2.6 0.3-0.1-3.2 1.1-5.3 1.9-3.2 4.5-3.4 5.4-4.8z m14.5 38.3c-1.2 0.1-3.9 0-4.7-4.4-0.5-2.6 0.1-5.2 1.7-7.3 1.6-2.1 2.4 2.2 3.1 4.5 1.1 3.6-0.5 5.6-0.1 7.2z m-5.4 33.9c-1.2 0.1-3.9 0-4.7-4.4-0.5-2.6 0.1-5.2 1.7-7.3 1.6-2.1 2.4 2.2 3.1 4.5 1.1 3.6-0.4 5.6-0.1 7.2z m0 0M205.2 447c1.7 0.2 5.3 1.1 5.1 7.3-0.1 3.6-1.6 7.1-4.4 9.4-2.7 2.4-2.7-3.6-3-6.9-0.4-5.2 2.4-7.6 2.3-9.8z m32.9-34.2c1.7 0 5.4 0.6 5.8 6.8 0.3 3.6-1 7.2-3.5 9.8-2.5 2.6-3-3.4-3.6-6.6-0.9-5.2 1.6-7.8 1.3-10z m18.5 18c1.7-0.2 5.4-0.2 6.7 5.9 0.8 3.5 0 7.2-2.1 10.2-2.1 2.9-3.4-2.9-4.5-6.1-1.6-4.9 0.5-7.9-0.1-10z m25.1-32.3c1.7 0.2 5.3 1 5.2 7.3 0 3.6-1.6 7.1-4.4 9.5-2.7 2.4-2.7-3.6-3-6.9-0.4-5.3 2.3-7.7 2.2-9.9z m16.3 16.7c1.7 0.2 5.3 1 5.2 7.3 0 3.6-1.6 7.1-4.4 9.5-2.7 2.4-2.7-3.6-3-6.9-0.4-5.3 2.3-7.7 2.2-9.9z m11.1 29.7c1.7-0.1 5.4 0.1 6.3 6.3 0.6 3.6-0.4 7.2-2.7 10.1-2.3 2.8-3.2-3.1-4.1-6.3-1.3-5.1 0.9-7.9 0.5-10.1z m-20.2 8c1.5-0.8 5-2.1 8.3 3.2 2 3.1 2.5 6.8 1.6 10.3-1 3.5-4.2-1.5-6.3-4.1-3.2-4.1-2.3-7.5-3.6-9.4z m32.6 8.8c1.4-0.6 4.4-1.3 6.8 3.4 1.4 2.7 1.6 5.9 0.5 8.8-1.1 2.9-3.4-1.6-5-4-2.4-3.7-1.3-6.6-2.3-8.2z m-80.3-14.5c1.4-0.6 4.4-1.3 6.8 3.4 1.4 2.7 1.6 5.9 0.5 8.8-1.1 2.9-3.4-1.6-5-4-2.4-3.7-1.3-6.6-2.3-8.2z m-51.9 4.4c-0.8-1-2.2-3.2 1.1-6.3 1.9-1.8 4.4-2.7 7-2.6 2.6 0.2-0.5 3.2-2 5-2.5 2.9-5 2.7-6.1 3.9z m11-23.6c-0.8-1-2.2-3.2 1.1-6.3 1.9-1.8 4.4-2.7 7-2.6 2.6 0.2-0.5 3.2-2 5-2.4 2.9-5 2.7-6.1 3.9z m25.6-3.6c-1.2 0.2-3.9 0.1-4.8-4.2-0.6-2.5 0-5.2 1.5-7.3 1.5-2.1 2.5 2.1 3.2 4.4 1.2 3.4-0.3 5.6 0.1 7.1z m1.4 19.4c-1.2 0.5-3.7 1.2-5.7-2.8-1.2-2.3-1.4-5-0.5-7.5 0.9-2.4 2.9 1.4 4.2 3.4 2.1 3.1 1.2 5.5 2 6.9z m14-39.6c-1.2 0.2-3.9 0.3-5-4.1-0.7-2.5-0.2-5.2 1.2-7.4s2.5 2 3.4 4.2c1.4 3.6-0.1 5.7 0.4 7.3z m27.6-6.8c0.9 0.8 2.7 2.8 0 6.4-1.5 2.1-3.9 3.5-6.5 3.7-2.6 0.3-0.1-3.2 1.1-5.3 2-3.2 4.5-3.4 5.4-4.8z m14.5 38.3c-1.2 0.1-3.9 0-4.7-4.4-0.5-2.6 0.1-5.2 1.7-7.3 1.6-2.1 2.4 2.2 3.1 4.5 1.1 3.5-0.5 5.6-0.1 7.2z m-5.4 33.9c-1.2 0.1-3.9 0-4.7-4.4-0.5-2.6 0.1-5.2 1.7-7.3 1.6-2.1 2.4 2.2 3.1 4.5 1.1 3.5-0.4 5.6-0.1 7.2z m0 0M233.1 517.8c1.7 0.2 5.3 1.1 5.1 7.3-0.1 3.6-1.6 7.1-4.4 9.4-2.7 2.4-2.7-3.6-3-6.9-0.3-5.2 2.4-7.6 2.3-9.8z m33-34.2c1.7 0 5.4 0.6 5.8 6.8 0.3 3.6-1 7.2-3.5 9.8-2.5 2.6-3-3.4-3.6-6.6-1-5.2 1.5-7.8 1.3-10z m18.4 18c1.7-0.2 5.4-0.2 6.7 5.9 0.8 3.5 0 7.2-2.1 10.2-2.1 2.9-3.4-2.9-4.5-6.1-1.6-4.9 0.5-7.8-0.1-10z m25.1-32.3c1.7 0.2 5.3 1 5.2 7.3 0 3.6-1.6 7.1-4.4 9.5-2.7 2.4-2.7-3.6-3-6.9-0.4-5.3 2.3-7.7 2.2-9.9zM326 486c1.7 0.2 5.3 1 5.2 7.3 0 3.6-1.6 7.1-4.4 9.5-2.7 2.4-2.7-3.6-3-6.9-0.4-5.3 2.3-7.7 2.2-9.9z m11 29.7c1.7-0.1 5.4 0.1 6.3 6.3 0.6 3.6-0.4 7.2-2.7 10.1-2.3 2.8-3.2-3.1-4.1-6.3-1.3-5.1 1-7.9 0.5-10.1z m-20.1 8.1c1.5-0.8 5-2.1 8.3 3.2 2 3.1 2.5 6.8 1.6 10.3-1 3.5-4.2-1.5-6.3-4.1-3.3-4.2-2.3-7.6-3.6-9.4z m32.6 8.7c1.4-0.6 4.4-1.3 6.8 3.4 1.4 2.7 1.6 5.9 0.5 8.8-1.1 2.9-3.4-1.6-5-4-2.4-3.7-1.4-6.6-2.3-8.2zM269.2 518c1.4-0.6 4.4-1.3 6.8 3.4 1.4 2.7 1.6 5.9 0.5 8.8-1.1 2.9-3.4-1.6-5-4-2.4-3.7-1.4-6.6-2.3-8.2z m-52 4.4c-0.8-1-2.2-3.2 1.1-6.3 1.9-1.8 4.4-2.7 7-2.6 2.6 0.2-0.5 3.2-2 5-2.4 2.9-5 2.8-6.1 3.9z m11-23.6c-0.8-1-2.2-3.2 1.1-6.3 1.9-1.8 4.4-2.7 7-2.6 2.6 0.2-0.5 3.2-2 5-2.4 2.9-5 2.7-6.1 3.9z m25.6-3.6c-1.2 0.2-3.9 0.1-4.8-4.2-0.6-2.5 0-5.2 1.5-7.3 1.5-2.1 2.5 2.1 3.2 4.4 1.2 3.5-0.3 5.6 0.1 7.1z m1.4 19.4c-1.2 0.5-3.7 1.2-5.7-2.8-1.2-2.3-1.4-5-0.5-7.5 0.9-2.4 2.9 1.4 4.2 3.4 2.1 3.1 1.2 5.5 2 6.9z m14.1-39.6c-1.2 0.2-3.9 0.3-5-4.1-0.7-2.5-0.2-5.2 1.2-7.4s2.5 2 3.4 4.2c1.3 3.6-0.1 5.7 0.4 7.3z m27.5-6.8c0.9 0.8 2.7 2.8 0 6.4-1.5 2.1-3.9 3.5-6.5 3.7-2.6 0.3-0.1-3.2 1.1-5.3 2-3.2 4.6-3.4 5.4-4.8z m14.5 38.3c-1.2 0.1-3.9 0-4.7-4.4-0.5-2.6 0.1-5.2 1.7-7.3 1.6-2.1 2.4 2.2 3.1 4.5 1.1 3.6-0.5 5.6-0.1 7.2z m-5.3 33.9c-1.2 0.1-3.9 0-4.7-4.4-0.5-2.6 0.1-5.2 1.7-7.3 1.6-2.1 2.4 2.2 3.1 4.5 1.1 3.6-0.5 5.6-0.1 7.2z m0 0" fill="#5AE09A" p-id="4091"></path><path d="M277.6 634.8s10.3-27.3 9-43.8c-1.3-16.5-4.4-59.6-4.4-59.6h11.7l5.6 55.5 11.6-55.5 8.6 5.3s-9.4 36.9-13.3 64.6c-3.9 27.7-7.6 55.6-7.7 62.9 0 0 12.5-6.1 24.5-12.3 11.9-6.2 25.7-24 30.8-24.3 5.1-0.3 8.6 7.8 8.6 9.6 0 1.7-24.8 22.7-32.8 27-8 4.3-17.9 6-25.2 15.4-7.3 9.4-13.6 27.5-13 49.8 0.6 22.3 1.9 29.2 1.9 29.2h-35.3s0.1-47.6-2-67.4c-2.1-19.7-2.1-35.7-5.1-49.2-3-13.5-16.9-45.7-24.3-55.1-7.4-9.4-37.5-35.9-43.1-55.5-4.3-8.5 2.6-11.6 5.1-8.5 2.6 3.1 22.7 43.8 39.9 50.7-4.5-17.6-24-43.3-22.3-46.8 1.7-3.4 11.1-5.6 14.8-2.1 3.7 3.4 0.7 9.7 12.7 25.5 12 15.7 17.3 20.5 27.3 40 9.9 19.4 16.4 44.6 16.4 44.6z m0 0" fill="#008743" p-id="4092"></path><path d="M680.1 664.5h24.1c-13.5 0-6.2 3-28 3.8H650.8h1.3c21.8-0.8 14.5-3.8 28-3.8zM771.6 661.7h24.1c-2.7 0-5.6 0.5-8.7 1.9-10.8 4.9-6.1-0.7-30.7 6.5-5.4 1.6-10.3 2.2-14.8 2.2h-24.1c4.5 0 9.4-0.6 14.8-2.2 24.6-7.2 19.9-1.6 30.7-6.5 3.1-1.4 5.9-1.9 8.7-1.9z" fill="#008743" p-id="4093"></path><path d="M700.8 259.7c9.6 0 17 11.2 27.8 16.1 6.2 2.7 10.1 3.1 13.3 3.1h3.1c3.2 0 6 0.5 10.4 4.4 11.4 10.1 8 14.7 14.2 24.4 6.2 9.7 12.2 5.6 21.5 32.2 13.1 37.7 1.1 43.8 3.3 48.6 2.2 4.8 16.8-5.7 26.7 38 7.7 34-8.8 64.6-7.7 87.1 1.1 22.2 17.3 21.3 23.5 56 3.1 13.3-0.6 57.2-23.5 82.2-9.3 10.2-16.5 12.7-23 12.7-3.3 0-6.4-0.7-9.5-1.3-3.1-0.7-6.1-1.3-9.4-1.3-2.7 0-5.6 0.5-8.7 1.9-10.8 4.9-6.1-0.7-30.7 6.5-5.4 1.6-10.3 2.2-14.8 2.2-16 0-26.8-7.8-37.3-7.8-13.5 0-6.2 3-28 3.8h-1.3c-21.2 0-38.7-19.1-49.1-46.8-10.6-28.2-0.4-55.4 2.4-73.3 2.5-15.9-15.5-44.4-9.8-92.8 5.7-48.4 44.9-49.1 46-54 1.1-4.8 0-25 0-33.1 0-8.1 5.6-32.2 11.2-41.1 5.6-8.9 15.6-7 21.8-16.6 6.2-9.7-9.7-33.3 20.9-49.2 2.4-1.4 4.6-1.9 6.7-1.9z" fill="#00AA5D" p-id="4094"></path><path d="M861 569.5c-6.2-34.7-22.4-33.7-23.5-56-1.1-22.5 15.4-53.1 7.7-87.1-9.9-43.6-24.4-33.1-26.7-38-2.2-4.8 9.8-10.9-3.3-48.6-9.2-26.6-15.3-22.6-21.5-32.2-6.2-9.7-2.8-14.3-14.2-24.4-4.5-4-7.3-4.4-10.4-4.4h-4.8c-2.9-0.2-6.5-0.8-11.6-3.1-10.8-4.9-18.2-16.1-27.8-16.1h-24.1c9.6 0 17 11.2 27.8 16.1 6.2 2.7 10.1 3.1 13.3 3.1h4.5c2.6 0.2 5.2 1 9 4.4 11.4 10.1 8 14.7 14.2 24.4 6.2 9.7 12.2 5.6 21.5 32.2 13.1 37.7 1.1 43.8 3.3 48.6 2.2 4.8 16.8-5.7 26.7 38 7.7 34-8.8 64.6-7.7 87.1 1.1 22.2 17.3 21.3 23.5 56 3.1 13.3-0.6 57.2-23.5 82.2-9.3 10.2-16.5 12.7-23 12.7h24.1c6.4 0 13.6-2.6 23-12.7 23-25 26.6-68.9 23.5-82.2z" fill="#008743" p-id="4095"></path><path d="M663.4 366.1c1.7 0.2 5.3 1.1 5.1 7.3-0.1 3.6-1.6 7.1-4.4 9.4-2.7 2.4-2.7-3.6-3-6.9-0.4-5.2 2.4-7.6 2.3-9.8z m32.9-34.2c1.7 0 5.4 0.6 5.8 6.8 0.3 3.6-1 7.2-3.5 9.8-2.5 2.6-3-3.4-3.6-6.6-0.9-5.2 1.6-7.8 1.3-10z m18.5 18c1.7-0.2 5.4-0.2 6.7 5.9 0.8 3.5 0 7.2-2.1 10.2-2.1 2.9-3.4-2.9-4.5-6.1-1.6-4.9 0.5-7.8-0.1-10z m25.1-32.3c1.7 0.2 5.3 1 5.2 7.3 0 3.6-1.6 7.1-4.4 9.5-2.7 2.4-2.7-3.6-3-6.9-0.4-5.3 2.3-7.7 2.2-9.9z m16.4 16.7c1.7 0.2 5.3 1 5.2 7.3 0 3.6-1.6 7.1-4.4 9.5-2.7 2.4-2.7-3.6-3-6.9-0.4-5.3 2.2-7.7 2.2-9.9z m11 29.7c1.7-0.1 5.4 0.1 6.3 6.3 0.6 3.6-0.4 7.2-2.7 10.1-2.3 2.8-3.2-3.1-4.1-6.3-1.3-5.1 0.9-7.9 0.5-10.1z m-20.2 8.1c1.5-0.8 5-2.1 8.3 3.2 2 3.1 2.5 6.8 1.6 10.3-1 3.5-4.2-1.5-6.3-4.1-3.2-4.2-2.2-7.6-3.6-9.4z m32.7 8.7c1.4-0.6 4.4-1.3 6.8 3.4 1.4 2.7 1.6 5.9 0.5 8.8-1.1 2.9-3.4-1.6-5-4-2.5-3.7-1.4-6.6-2.3-8.2z m-80.3-14.5c1.4-0.6 4.4-1.3 6.8 3.4 1.4 2.7 1.6 5.9 0.5 8.8-1.1 2.9-3.4-1.6-5-4-2.5-3.7-1.4-6.6-2.3-8.2z m-52 4.4c-0.8-1-2.2-3.2 1.1-6.3 1.9-1.8 4.4-2.7 7-2.6 2.6 0.2-0.5 3.2-2 5-2.5 2.9-5 2.8-6.1 3.9z m11-23.6c-0.8-1-2.2-3.2 1.1-6.3 1.9-1.8 4.4-2.7 7-2.6 2.6 0.2-0.5 3.2-2 5-2.4 2.9-5 2.7-6.1 3.9z m25.6-3.6c-1.2 0.2-3.9 0.1-4.8-4.2-0.6-2.5 0-5.2 1.5-7.3 1.5-2.1 2.5 2.1 3.2 4.4 1.2 3.5-0.3 5.6 0.1 7.1z m1.4 19.4c-1.2 0.5-3.7 1.2-5.7-2.8-1.2-2.3-1.4-5-0.5-7.5 0.9-2.4 2.9 1.4 4.2 3.4 2.1 3.1 1.2 5.5 2 6.9z m14-39.6c-1.2 0.2-3.9 0.3-5-4.1-0.7-2.5-0.2-5.2 1.2-7.4s2.5 2 3.4 4.2c1.4 3.6 0 5.7 0.4 7.3z m27.6-6.8c0.9 0.8 2.7 2.8 0 6.4-1.5 2.1-3.9 3.5-6.5 3.7-2.6 0.3-0.1-3.2 1.1-5.3 2-3.2 4.5-3.4 5.4-4.8z m14.5 38.3c-1.2 0.1-3.9 0-4.7-4.4-0.5-2.6 0.1-5.2 1.7-7.3 1.6-2.1 2.4 2.2 3.1 4.5 1.1 3.6-0.5 5.6-0.1 7.2z m-5.3 33.9c-1.2 0.1-3.9 0-4.7-4.4-0.5-2.6 0.1-5.2 1.7-7.3 1.6-2.1 2.4 2.2 3.1 4.5 1 3.6-0.5 5.6-0.1 7.2z m0 0M648.4 435.3c1.7 0.2 5.3 1.1 5.1 7.3-0.1 3.6-1.6 7.1-4.4 9.4-2.7 2.4-2.7-3.6-3-6.9-0.3-5.2 2.4-7.6 2.3-9.8z m32.9-34.2c1.7 0 5.4 0.6 5.8 6.8 0.3 3.6-1 7.2-3.5 9.8-2.5 2.6-3-3.4-3.6-6.6-0.9-5.2 1.6-7.8 1.3-10z m18.5 18c1.7-0.2 5.4-0.2 6.7 5.9 0.8 3.5 0 7.2-2.1 10.2-2.1 2.9-3.4-2.9-4.5-6.1-1.6-4.9 0.5-7.9-0.1-10z m25.1-32.4c1.7 0.2 5.3 1 5.2 7.3 0 3.6-1.6 7.1-4.4 9.5-2.7 2.4-2.7-3.6-3-6.9-0.4-5.3 2.3-7.6 2.2-9.9z m16.4 16.8c1.7 0.2 5.3 1 5.2 7.3 0 3.6-1.6 7.1-4.4 9.5-2.7 2.4-2.7-3.6-3-6.9-0.4-5.3 2.3-7.7 2.2-9.9z m11 29.7c1.7-0.1 5.4 0.1 6.3 6.3 0.6 3.6-0.4 7.2-2.7 10.1-2.3 2.8-3.2-3.1-4.1-6.3-1.3-5.1 0.9-7.9 0.5-10.1z m-20.1 8c1.5-0.8 5-2.1 8.3 3.2 2 3.1 2.5 6.8 1.6 10.3-1 3.5-4.2-1.5-6.3-4.1-3.3-4.1-2.3-7.6-3.6-9.4z m32.6 8.8c1.4-0.6 4.4-1.3 6.8 3.4 1.4 2.7 1.6 5.9 0.5 8.8-1.1 2.9-3.4-1.6-5-4-2.5-3.7-1.4-6.6-2.3-8.2z m-80.3-14.5c1.4-0.6 4.4-1.3 6.8 3.4 1.4 2.7 1.6 5.9 0.5 8.8-1.1 2.9-3.4-1.6-5-4-2.5-3.7-1.4-6.6-2.3-8.2z m-52 4.4c-0.8-1-2.2-3.2 1.1-6.3 1.9-1.8 4.4-2.7 7-2.6 2.6 0.2-0.5 3.2-2 5-2.4 2.9-5 2.7-6.1 3.9z m11-23.6c-0.8-1-2.2-3.2 1.1-6.3 1.9-1.8 4.4-2.7 7-2.6 2.6 0.2-0.5 3.2-2 5-2.4 2.9-5 2.7-6.1 3.9z m25.6-3.6c-1.2 0.2-3.9 0.1-4.8-4.2-0.6-2.5 0-5.2 1.5-7.3 1.5-2.1 2.5 2.1 3.2 4.4 1.2 3.4-0.3 5.5 0.1 7.1z m1.4 19.3c-1.2 0.5-3.7 1.2-5.7-2.8-1.2-2.3-1.4-5-0.5-7.5 0.9-2.4 2.9 1.4 4.2 3.4 2.1 3.1 1.2 5.6 2 6.9z m14.1-39.6c-1.2 0.2-3.9 0.3-5-4.1-0.7-2.5-0.2-5.2 1.2-7.4s2.5 2 3.4 4.2c1.3 3.6-0.1 5.8 0.4 7.3z m27.5-6.7c0.9 0.8 2.7 2.8 0 6.4-1.5 2.1-3.9 3.5-6.5 3.7-2.6 0.3-0.1-3.2 1.1-5.3 2-3.2 4.5-3.5 5.4-4.8z m14.5 38.2c-1.2 0.1-3.9 0-4.7-4.4-0.5-2.6 0.1-5.2 1.7-7.3 1.6-2.1 2.4 2.2 3.1 4.5 1.1 3.6-0.5 5.7-0.1 7.2z m-5.3 33.9c-1.2 0.1-3.9 0-4.7-4.4-0.5-2.6 0.1-5.2 1.7-7.3 1.6-2.1 2.4 2.2 3.1 4.5 1 3.6-0.5 5.7-0.1 7.2z m0 0M676.3 506.1c1.7 0.2 5.3 1.1 5.1 7.3-0.1 3.6-1.6 7.1-4.4 9.4-2.7 2.4-2.7-3.6-3-6.9-0.3-5.2 2.4-7.6 2.3-9.8z m33-34.2c1.7 0 5.4 0.6 5.8 6.8 0.3 3.6-1 7.2-3.5 9.8-2.5 2.6-3-3.4-3.6-6.6-0.9-5.2 1.6-7.8 1.3-10z m18.4 18c1.7-0.2 5.4-0.2 6.7 5.9 0.8 3.5 0 7.2-2.1 10.2-2.1 2.9-3.4-2.9-4.5-6.1-1.6-4.9 0.5-7.9-0.1-10z m25.1-32.4c1.7 0.2 5.3 1 5.2 7.3 0 3.6-1.6 7.1-4.4 9.5-2.7 2.4-2.7-3.6-3-6.9-0.4-5.3 2.3-7.6 2.2-9.9z m16.4 16.8c1.7 0.2 5.3 1 5.2 7.3 0 3.6-1.6 7.1-4.4 9.5-2.7 2.4-2.7-3.6-3-6.9-0.4-5.3 2.3-7.7 2.2-9.9z m11 29.7c1.7-0.1 5.4 0.1 6.3 6.3 0.6 3.6-0.4 7.2-2.7 10.1-2.3 2.8-3.2-3.1-4.1-6.3-1.3-5.1 1-7.9 0.5-10.1z m-20.1 8c1.5-0.8 5-2.1 8.3 3.2 2 3.1 2.5 6.8 1.6 10.3-1 3.5-4.2-1.5-6.3-4.1-3.3-4.1-2.3-7.6-3.6-9.4z m32.6 8.8c1.4-0.6 4.4-1.3 6.8 3.4 1.4 2.7 1.6 5.9 0.5 8.8-1.1 2.9-3.4-1.6-5-4-2.4-3.7-1.3-6.6-2.3-8.2z m-80.3-14.5c1.4-0.6 4.4-1.3 6.8 3.4 1.4 2.7 1.6 5.9 0.5 8.8-1.1 2.9-3.4-1.6-5-4-2.4-3.7-1.3-6.6-2.3-8.2z m-52 4.4c-0.8-1-2.2-3.2 1.1-6.3 1.9-1.8 4.4-2.7 7-2.6 2.6 0.2-0.5 3.2-2 5-2.4 2.9-5 2.7-6.1 3.9z m11.1-23.6c-0.8-1-2.2-3.2 1.1-6.3 1.9-1.8 4.4-2.7 7-2.6 2.6 0.2-0.5 3.2-2 5-2.5 2.9-5.1 2.7-6.1 3.9z m25.6-3.6c-1.2 0.2-3.9 0.1-4.8-4.2-0.6-2.5 0-5.2 1.5-7.3 1.5-2.1 2.5 2.1 3.2 4.4 1.1 3.4-0.4 5.5 0.1 7.1z m1.4 19.4c-1.2 0.5-3.7 1.2-5.7-2.8-1.2-2.3-1.4-5-0.5-7.5 0.9-2.4 2.9 1.4 4.2 3.4 2.1 3.1 1.1 5.5 2 6.9z m14-39.7c-1.2 0.2-3.9 0.3-5-4.1-0.7-2.5-0.2-5.2 1.2-7.4s2.5 2 3.4 4.2c1.3 3.7-0.1 5.8 0.4 7.3z m27.6-6.7c0.9 0.8 2.7 2.8 0 6.4-1.5 2.1-3.9 3.5-6.5 3.7-2.6 0.3-0.1-3.2 1.1-5.3 1.9-3.2 4.5-3.5 5.4-4.8z m14.4 38.3c-1.2 0.1-3.9 0-4.7-4.4-0.5-2.6 0.1-5.2 1.7-7.3 1.6-2.1 2.4 2.2 3.1 4.5 1.1 3.5-0.5 5.6-0.1 7.2z m-5.3 33.9c-1.2 0.1-3.9 0-4.7-4.4-0.5-2.6 0.1-5.2 1.7-7.3 1.6-2.1 2.4 2.2 3.1 4.5 1.1 3.5-0.5 5.6-0.1 7.2z m0 0" fill="#5AE09A" p-id="4096"></path><path d="M720.8 623s10.3-27.3 9-43.8c-1.3-16.5-4.4-59.6-4.4-59.6H737l5.6 55.5 11.6-55.5 8.6 5.3s-9.4 36.9-13.3 64.6c-3.9 27.7-7.6 55.6-7.7 62.9 0 0 12.5-6.1 24.5-12.3 11.9-6.2 25.7-24 30.8-24.3 5.1-0.3 8.6 7.8 8.6 9.6 0 1.7-24.8 22.7-32.8 27-8 4.3-17.9 6-25.2 15.4-7.3 9.4-13.6 27.5-13 49.8 0.6 22.3 1.9 29.2 1.9 29.2h-35.3s0.1-47.6-2-67.4c-2.1-19.7-2.1-35.7-5.1-49.2-3-13.5-16.9-45.7-24.3-55.1-7.4-9.4-37.5-35.9-43.1-55.5-4.3-8.5 2.6-11.6 5.1-8.5 2.6 3.1 22.7 43.8 39.9 50.7-4.5-17.6-24-43.3-22.3-46.8 1.7-3.4 11.1-5.6 14.8-2.1 3.7 3.4 0.7 9.7 12.7 25.5 12 15.7 17.3 20.5 27.3 40s16.5 44.6 16.5 44.6z m0 0" fill="#008743" p-id="4097"></path><path d="M439.8 751.4h36c-20.1 0-9.2 4.4-41.7 5.6h-38 2c32.5-1.1 21.6-5.6 41.7-5.6zM576.2 747.3h36c-4.1 0-8.4 0.7-13 2.8-16.1 7.3-9-1.1-45.8 9.7-8.1 2.4-15.4 3.3-22 3.3h-36c6.7 0 14-0.9 22-3.3 36.7-10.8 29.6-2.4 45.8-9.7 4.6-2 8.9-2.8 13-2.8z" fill="#008743" p-id="4098"></path><path d="M470.6 148.1c14.3 0 25.3 16.7 41.5 23.9 9.2 4.1 15.1 4.6 19.9 4.6H536.7c4.7 0 8.9 0.7 15.6 6.6 17 15 12 21.9 21.2 36.3 9.2 14.4 18.2 8.4 32 48.1 19.5 56.3 1.6 65.3 5 72.5 3.3 7.2 25-8.5 39.7 56.6 11.4 50.6-13.1 96.2-11.5 129.8 1.6 33.1 25.8 31.8 35 83.4 4.6 19.8-0.8 85.3-35.1 122.6-13.9 15.1-24.6 19-34.2 19-4.9 0-9.5-1-14.1-2s-9.1-2-13.9-2c-4.1 0-8.4 0.7-13 2.8-16.1 7.3-9-1.1-45.8 9.7-8.1 2.4-15.4 3.3-22 3.3-23.8 0-39.9-11.7-55.6-11.7-20.1 0-9.2 4.4-41.7 5.6h-2c-31.7 0-57.6-28.5-73.2-69.7-15.9-42.1-0.6-82.6 3.6-109.3 3.7-23.7-23.2-66.1-14.6-138.3 8.5-72.1 67-73.3 68.6-80.5 1.7-7.2 0-37.3 0-49.3s8.3-48 16.7-61.3c8.3-13.3 23.3-10.4 32.5-24.8S415.4 174.4 461 150.6c3.3-1.7 6.5-2.5 9.6-2.5z" fill="#00AA5D" p-id="4099"></path><path d="M709.5 609.8c-9.2-51.7-33.4-50.3-35-83.4-1.7-33.5 22.9-79.2 11.5-129.8-14.7-65-36.4-49.4-39.7-56.6-3.3-7.2 14.6-16.2-5-72.5-13.8-39.6-22.8-33.6-32-48.1s-4.2-21.3-21.2-36.3c-6.7-5.9-10.8-6.6-15.6-6.6h-7.2c-4.3-0.2-9.7-1.2-17.3-4.6-16.1-7.2-27.2-23.9-41.5-23.9h-36c14.3 0 25.3 16.7 41.5 23.9 9.2 4.1 15.1 4.6 19.9 4.6h6.7c3.9 0.3 7.8 1.5 13.5 6.5 17 15 12 21.9 21.2 36.3 9.2 14.4 18.2 8.4 32 48.1 19.5 56.3 1.6 65.3 5 72.5 3.3 7.2 25-8.5 39.7 56.6 11.4 50.6-13.1 96.2-11.5 129.8 1.6 33.1 25.8 31.8 35 83.4 4.6 19.8-0.8 85.3-35.1 122.6-13.9 15.1-24.6 19-34.2 19h36c9.6 0 20.3-3.8 34.2-19 34.2-37.2 39.7-102.6 35.1-122.5z" fill="#008743" p-id="4100"></path><path d="M414.9 306.7c2.6 0.3 7.9 1.6 7.7 10.9-0.1 5.4-2.5 10.5-6.5 14.1-4.1 3.6-4-5.4-4.4-10.3-0.7-7.9 3.3-11.4 3.2-14.7z m49.1-51c2.6 0 8 0.9 8.6 10.2 0.4 5.4-1.5 10.7-5.3 14.6-3.8 3.9-4.4-5-5.3-9.9-1.3-7.7 2.4-11.6 2-14.9z m27.5 26.8c2.6-0.3 8.1-0.3 10 8.8 1.2 5.3 0 10.8-3.1 15.2-3.1 4.4-5.1-4.3-6.7-9-2.4-7.4 0.7-11.8-0.2-15z m37.4-48.2c2.6 0.3 7.9 1.6 7.7 10.8-0.1 5.4-2.4 10.5-6.5 14.1-4.1 3.6-4-5.4-4.4-10.3-0.7-7.7 3.4-11.3 3.2-14.6z m24.4 25c2.6 0.3 7.9 1.6 7.7 10.8-0.1 5.4-2.4 10.5-6.5 14.1-4.1 3.6-4-5.4-4.4-10.3-0.7-7.8 3.4-11.3 3.2-14.6z m16.4 44.3c2.6-0.2 8.1 0.2 9.4 9.4 0.9 5.3-0.6 10.8-4 15-3.4 4.2-4.8-4.6-6.1-9.4-1.9-7.6 1.4-11.8 0.7-15z m-30 11.9c2.3-1.2 7.5-3.1 12.4 4.8 2.9 4.5 3.8 10.1 2.4 15.3-1.4 5.2-6.3-2.3-9.4-6.2-4.8-6-3.4-11.2-5.4-13.9z m48.7 13.1c2-0.8 6.5-2 10.1 5 2.1 4.1 2.4 8.9 0.8 13.1-1.6 4.3-5.1-2.4-7.4-5.9-3.7-5.5-2.1-9.8-3.5-12.2zM468.7 307c2-0.8 6.5-2 10.1 5 2.1 4.1 2.4 8.9 0.8 13.1-1.6 4.3-5.1-2.4-7.4-5.9-3.7-5.5-2.1-9.8-3.5-12.2z m-77.5 6.6c-1.2-1.5-3.2-4.8 1.6-9.4 2.8-2.7 6.6-4.1 10.5-3.8 3.9 0.3-0.7 4.8-3 7.5-3.6 4.2-7.5 3.9-9.1 5.7z m16.4-35.2c-1.2-1.5-3.2-4.8 1.6-9.4 2.8-2.7 6.6-4.1 10.5-3.8 3.9 0.3-0.7 4.8-3 7.5-3.6 4.2-7.4 3.9-9.1 5.7z m38.2-5.4c-1.8 0.2-5.8 0.2-7.2-6.3-0.8-3.8 0-7.8 2.2-10.9 2.3-3.2 3.7 3.1 4.8 6.5 1.8 5.2-0.4 8.4 0.2 10.7z m2.1 28.8c-1.7 0.7-5.5 1.7-8.6-4.2-1.8-3.4-2-7.5-0.7-11.1 1.4-3.6 4.3 2.1 6.3 5 3.1 4.7 1.8 8.3 3 10.3z m20.9-59c-1.8 0.3-5.8 0.4-7.4-6.1-1-3.8-0.3-7.8 1.8-11s3.8 3 5 6.3c2 5.3-0.1 8.5 0.6 10.8z m41.1-10c1.4 1.2 4 4.2 0 9.6-2.3 3.1-5.8 5.2-9.7 5.6-3.9 0.4-0.1-4.8 1.7-7.9 2.9-5 6.7-5.3 8-7.3z m21.6 57c-1.9 0.2-5.8 0-7-6.5-0.7-3.8 0.2-7.8 2.5-10.9 2.3-3.1 3.6 3.2 4.6 6.6 1.6 5.4-0.7 8.5-0.1 10.8z m-8 50.5c-1.9 0.2-5.8 0-7-6.5-0.7-3.8 0.2-7.8 2.5-10.9 2.3-3.1 3.6 3.2 4.6 6.6 1.7 5.4-0.7 8.5-0.1 10.8z m0 0M392.5 409.8c2.6 0.3 7.9 1.6 7.7 10.9-0.1 5.4-2.5 10.5-6.5 14.1-4.1 3.6-4-5.4-4.4-10.3-0.7-7.9 3.4-11.4 3.2-14.7z m49.2-51c2.6 0 8 0.9 8.6 10.2 0.4 5.4-1.5 10.7-5.3 14.6-3.8 3.9-4.4-5-5.3-9.9-1.3-7.7 2.4-11.6 2-14.9z m27.4 26.8c2.6-0.3 8.1-0.3 10 8.8 1.2 5.3 0 10.8-3.1 15.2-3.1 4.4-5.1-4.3-6.7-9-2.4-7.4 0.8-11.8-0.2-15z m37.5-48.2c2.6 0.3 7.9 1.6 7.7 10.8-0.1 5.4-2.4 10.5-6.5 14.1-4.1 3.6-4-5.4-4.4-10.3-0.7-7.7 3.3-11.3 3.2-14.6z m24.4 25c2.6 0.3 7.9 1.6 7.7 10.8-0.1 5.4-2.4 10.5-6.5 14.1-4.1 3.6-4-5.4-4.4-10.3-0.7-7.8 3.3-11.3 3.2-14.6z m16.4 44.3c2.6-0.2 8.1 0.2 9.4 9.4 0.9 5.3-0.6 10.8-4 15-3.4 4.2-4.8-4.6-6.1-9.4-2-7.6 1.4-11.8 0.7-15z m-30 11.9c2.3-1.2 7.5-3.1 12.4 4.8 2.9 4.5 3.8 10.1 2.4 15.3-1.4 5.2-6.3-2.3-9.4-6.2-4.9-6-3.5-11.2-5.4-13.9z m48.6 13.1c2-0.8 6.5-2 10.1 5 2.1 4.1 2.4 8.9 0.8 13.1-1.6 4.3-5.1-2.4-7.4-5.9-3.7-5.5-2.1-9.8-3.5-12.2z m-119.7-21.6c2-0.8 6.5-2 10.1 5 2.1 4.1 2.4 8.9 0.8 13.1-1.6 4.3-5.1-2.4-7.4-5.9-3.7-5.5-2-9.8-3.5-12.2z m-77.5 6.6c-1.2-1.5-3.2-4.8 1.6-9.4 2.8-2.7 6.6-4.1 10.5-3.8 3.9 0.3-0.7 4.8-3 7.5-3.6 4.2-7.4 3.9-9.1 5.7z m16.5-35.2c-1.2-1.5-3.2-4.8 1.6-9.4 2.8-2.7 6.6-4.1 10.5-3.8 3.9 0.3-0.7 4.8-3 7.5-3.6 4.2-7.5 3.9-9.1 5.7z m38.2-5.4c-1.8 0.2-5.8 0.2-7.2-6.3-0.8-3.8 0-7.8 2.2-10.9 2.3-3.2 3.7 3.1 4.8 6.5 1.8 5.2-0.5 8.4 0.2 10.7z m2 28.9c-1.7 0.7-5.5 1.7-8.6-4.2-1.8-3.4-2-7.5-0.7-11.1 1.4-3.6 4.3 2.1 6.3 5 3.2 4.6 1.8 8.2 3 10.3z m20.9-59.1c-1.8 0.3-5.8 0.4-7.4-6.1-1-3.8-0.3-7.8 1.8-11s3.8 3 5 6.3c2 5.3-0.1 8.5 0.6 10.8z m41.1-10c1.4 1.2 4 4.2 0 9.6-2.3 3.1-5.8 5.2-9.7 5.6-3.9 0.4-0.1-4.8 1.7-7.9 2.9-5 6.7-5.3 8-7.3z m21.6 57c-1.9 0.2-5.8 0-7-6.5-0.7-3.8 0.2-7.8 2.5-10.9 2.3-3.1 3.6 3.2 4.6 6.6 1.7 5.4-0.7 8.5-0.1 10.8z m-7.9 50.5c-1.9 0.2-5.8 0-7-6.5-0.7-3.8 0.2-7.8 2.5-10.9 2.3-3.1 3.6 3.2 4.6 6.6 1.6 5.4-0.7 8.5-0.1 10.8z m0 0M434.2 515.3c2.6 0.3 7.9 1.6 7.7 10.9-0.1 5.4-2.5 10.5-6.5 14.1-4.1 3.6-4-5.4-4.4-10.3-0.7-7.8 3.3-11.3 3.2-14.7z m49.1-50.9c2.6 0 8 0.9 8.6 10.2 0.4 5.4-1.5 10.7-5.3 14.6-3.8 3.9-4.4-5-5.3-9.9-1.3-7.8 2.4-11.7 2-14.9z m27.5 26.8c2.6-0.3 8.1-0.3 10 8.8 1.2 5.3 0 10.8-3.1 15.2-3.1 4.4-5.1-4.3-6.7-9-2.4-7.5 0.7-11.8-0.2-15z m37.4-48.2c2.6 0.3 7.9 1.6 7.7 10.8-0.1 5.4-2.4 10.5-6.5 14.1-4.1 3.6-4-5.4-4.4-10.3-0.7-7.8 3.4-11.3 3.2-14.6z m24.4 24.9c2.6 0.3 7.9 1.6 7.7 10.8-0.1 5.4-2.4 10.5-6.5 14.1-4.1 3.6-4-5.4-4.4-10.3-0.7-7.7 3.3-11.3 3.2-14.6z m16.4 44.3c2.6-0.2 8.1 0.2 9.4 9.4 0.9 5.3-0.6 10.8-4 15-3.4 4.2-4.8-4.6-6.1-9.4-2-7.6 1.4-11.7 0.7-15z m-30 12c2.3-1.2 7.5-3.1 12.4 4.8 2.9 4.5 3.8 10.1 2.4 15.3-1.4 5.2-6.3-2.3-9.4-6.2-4.8-6-3.4-11.2-5.4-13.9z m48.6 13c2-0.8 6.5-2 10.1 5 2.1 4.1 2.4 8.9 0.8 13.1-1.6 4.3-5.1-2.4-7.4-5.9-3.6-5.5-2-9.8-3.5-12.2zM488 515.6c2-0.8 6.5-2 10.1 5 2.1 4.1 2.4 8.9 0.8 13.1-1.6 4.3-5.1-2.4-7.4-5.9-3.7-5.5-2.1-9.7-3.5-12.2z m-77.5 6.6c-1.2-1.5-3.2-4.8 1.6-9.4 2.8-2.7 6.6-4.1 10.5-3.8 3.9 0.3-0.7 4.8-3 7.5-3.7 4.2-7.5 4-9.1 5.7z m16.4-35.2c-1.2-1.5-3.2-4.8 1.6-9.4 2.8-2.7 6.6-4.1 10.5-3.8 3.9 0.3-0.7 4.8-3 7.5-3.6 4.2-7.4 4-9.1 5.7z m38.2-5.4c-1.8 0.2-5.8 0.2-7.2-6.3-0.8-3.8 0-7.8 2.2-10.9 2.3-3.2 3.7 3.1 4.8 6.5 1.8 5.3-0.4 8.4 0.2 10.7z m2.1 28.9c-1.7 0.7-5.5 1.7-8.6-4.2-1.8-3.4-2-7.5-0.7-11.1 1.4-3.6 4.3 2.1 6.3 5 3.1 4.6 1.8 8.3 3 10.3z m20.9-59c-1.8 0.3-5.8 0.4-7.4-6.1-1-3.8-0.3-7.8 1.8-11s3.8 3 5 6.3c2 5.3-0.1 8.5 0.6 10.8z m41.1-10.1c1.4 1.2 4 4.2 0 9.6-2.3 3.1-5.8 5.2-9.7 5.6-3.9 0.4-0.1-4.8 1.7-7.9 2.8-4.9 6.7-5.3 8-7.3z m21.6 57c-1.9 0.2-5.8 0-7-6.5-0.7-3.8 0.2-7.8 2.5-10.9 2.3-3.1 3.6 3.2 4.6 6.6 1.6 5.4-0.7 8.5-0.1 10.8z m-8 50.6c-1.9 0.2-5.8 0-7-6.5-0.7-3.8 0.2-7.8 2.5-10.9 2.3-3.1 3.6 3.2 4.6 6.6 1.7 5.4-0.7 8.4-0.1 10.8z m0 0" fill="#5AE09A" p-id="4101"></path><path d="M500.5 689.6s15.4-40.6 13.4-65.3c-2-24.6-6.6-88.8-6.6-88.8h17.4l8.3 82.7 17.3-82.7 12.8 7.9s-14.1 55-19.8 96.3c-5.8 41.3-11.4 82.8-11.4 93.7 0 0 18.7-9 36.5-18.3 17.8-9.2 38.3-35.8 46-36.3 7.7-0.5 12.8 11.7 12.8 14.3 0 2.6-36.9 33.9-48.8 40.3-11.9 6.4-26.6 8.9-37.5 23-10.9 14.1-20.3 41-19.4 74.3 0.9 33.3 2.8 43.5 2.8 43.5h-52.7s0.2-71-3-100.4c-3.2-29.4-3.2-53.3-7.7-73.3-4.5-20.1-25.2-68.1-36.3-82.2-11.1-14-55.9-53.5-64.2-82.7-6.4-12.7 3.8-17.3 7.7-12.7 3.8 4.6 33.9 65.4 59.5 75.6-6.7-26.2-35.8-64.6-33.3-69.7 2.6-5.1 16.6-8.3 22-3.2 5.5 5.1 1 14.5 18.9 38 17.9 23.4 25.8 30.6 40.7 59.7 14.9 28.9 24.6 66.3 24.6 66.3z m0 0" fill="#008743" p-id="4102"></path></svg>